<svg width="200" height="60" viewBox="0 0 200 60" fill="none" xmlns="http://www.w3.org/2000/svg">
<rect width="200" height="60" rx="4" fill="#202124"/>
<path d="M60.8252 22V14.8906H62.832C63.4505 14.8906 63.9974 15.0273 64.4727 15.3008C64.9479 15.5742 65.3141 15.9632 65.5713 16.4678C65.8317 16.9723 65.9635 17.5518 65.9668 18.2061V18.6602C65.9668 19.3307 65.8366 19.9183 65.5762 20.4229C65.319 20.9274 64.9495 21.3148 64.4678 21.585C63.9893 21.8551 63.431 21.9935 62.793 22H60.8252ZM61.7627 15.6621V21.2334H62.749C63.4717 21.2334 64.0332 21.0088 64.4336 20.5596C64.8372 20.1104 65.0391 19.4707 65.0391 18.6406V18.2256C65.0391 17.4183 64.8486 16.7917 64.4678 16.3457C64.0902 15.8965 63.5531 15.6686 62.8564 15.6621H61.7627ZM72.8564 18.6748C72.8564 19.3714 72.7393 19.9801 72.5049 20.501C72.2705 21.0186 71.9385 21.4141 71.5088 21.6875C71.0791 21.9609 70.5778 22.0977 70.0049 22.0977C69.445 22.0977 68.9486 21.9609 68.5156 21.6875C68.0827 21.4108 67.7458 21.0186 67.5049 20.5107C67.2673 19.9997 67.1452 19.4089 67.1387 18.7383V18.2256C67.1387 17.542 67.2575 16.9382 67.4951 16.4141C67.7327 15.89 68.068 15.4896 68.501 15.2129C68.9372 14.9329 69.4352 14.793 69.9951 14.793C70.5648 14.793 71.0661 14.9313 71.499 15.208C71.9352 15.4814 72.2705 15.8802 72.5049 16.4043C72.7393 16.9251 72.8564 17.5322 72.8564 18.2256V18.6748ZM71.9238 18.2158C71.9238 17.3727 71.7546 16.7266 71.416 16.2773C71.0775 15.8249 70.6038 15.5986 69.9951 15.5986C69.4027 15.5986 68.9355 15.8249 68.5938 16.2773C68.2552 16.7266 68.0811 17.3516 68.0713 18.1523V18.6748C68.0713 19.4919 68.2422 20.1348 68.584 20.6035C68.929 21.069 69.4027 21.3018 70.0049 21.3018C70.6104 21.3018 71.0791 21.082 71.4111 20.6426C71.7432 20.1999 71.9141 19.5667 71.9238 18.7432V18.2158ZM75.7959 19.7588L75.9326 20.6963L76.1328 19.8516L77.5391 14.8906H78.3301L79.7021 19.8516L79.8975 20.7109L80.0488 19.7539L81.1523 14.8906H82.0947L80.3711 22H79.5166L78.0518 16.8193L77.9395 16.2773L77.8271 16.8193L76.3086 22H75.4541L73.7354 14.8906H74.6729L75.7959 19.7588ZM88.6035 22H87.6611L84.082 16.5215V22H83.1396V14.8906H84.082L87.6709 20.3936V14.8906H88.6035V22ZM91.2109 21.2334H94.5801V22H90.2686V14.8906H91.2109V21.2334ZM100.796 18.6748C100.796 19.3714 100.679 19.9801 100.444 20.501C100.21 21.0186 99.8779 21.4141 99.4482 21.6875C99.0186 21.9609 98.5173 22.0977 97.9443 22.0977C97.3844 22.0977 96.888 21.9609 96.4551 21.6875C96.0221 21.4108 95.6852 21.0186 95.4443 20.5107C95.2067 19.9997 95.0846 19.4089 95.0781 18.7383V18.2256C95.0781 17.542 95.1969 16.9382 95.4346 16.4141C95.6722 15.89 96.0075 15.4896 96.4404 15.2129C96.8766 14.9329 97.3747 14.793 97.9346 14.793C98.5042 14.793 99.0055 14.9313 99.4385 15.208C99.8747 15.4814 100.21 15.8802 100.444 16.4043C100.679 16.9251 100.796 17.5322 100.796 18.2256V18.6748ZM99.8633 18.2158C99.8633 17.3727 99.694 16.7266 99.3555 16.2773C99.0169 15.8249 98.5433 15.5986 97.9346 15.5986C97.3421 15.5986 96.875 15.8249 96.5332 16.2773C96.1947 16.7266 96.0205 17.3516 96.0107 18.1523V18.6748C96.0107 19.4919 96.1816 20.1348 96.5234 20.6035C96.8685 21.069 97.3421 21.3018 97.9443 21.3018C98.5498 21.3018 99.0186 21.082 99.3506 20.6426C99.6826 20.1999 99.8535 19.5667 99.8633 18.7432V18.2158ZM106.021 20.1445H103.042L102.373 22H101.406L104.121 14.8906H104.941L107.661 22H106.699L106.021 20.1445ZM103.325 19.373H105.742L104.531 16.0479L103.325 19.373ZM108.618 22V14.8906H110.625C111.243 14.8906 111.79 15.0273 112.266 15.3008C112.741 15.5742 113.107 15.9632 113.364 16.4678C113.625 16.9723 113.757 17.5518 113.76 18.2061V18.6602C113.76 19.3307 113.63 19.9183 113.369 20.4229C113.112 20.9274 112.743 21.3148 112.261 21.585C111.782 21.8551 111.224 21.9935 110.586 22H108.618ZM109.556 15.6621V21.2334H110.542C111.265 21.2334 111.826 21.0088 112.227 20.5596C112.63 20.1104 112.832 19.4707 112.832 18.6406V18.2256C112.832 17.4183 112.642 16.7917 112.261 16.3457C111.883 15.8965 111.346 15.6686 110.649 15.6621H109.556ZM123.13 18.6748C123.13 19.3714 123.013 19.9801 122.778 20.501C122.544 21.0186 122.212 21.4141 121.782 21.6875C121.353 21.9609 120.851 22.0977 120.278 22.0977C119.718 22.0977 119.222 21.9609 118.789 21.6875C118.356 21.4108 118.019 21.0186 117.778 20.5107C117.541 19.9997 117.419 19.4089 117.412 18.7383V18.2256C117.412 17.542 117.531 16.9382 117.769 16.4141C118.006 15.89 118.341 15.4896 118.774 15.2129C119.211 14.9329 119.709 14.793 120.269 14.793C120.838 14.793 121.34 14.9313 121.772 15.208C122.209 15.4814 122.544 15.8802 122.778 16.4043C123.013 16.9251 123.13 17.5322 123.13 18.2256V18.6748ZM122.197 18.2158C122.197 17.3727 122.028 16.7266 121.689 16.2773C121.351 15.8249 120.877 15.5986 120.269 15.5986C119.676 15.5986 119.209 15.8249 118.867 16.2773C118.529 16.7266 118.354 17.3516 118.345 18.1523V18.6748C118.345 19.4919 118.516 20.1348 118.857 20.6035C119.202 21.069 119.676 21.3018 120.278 21.3018C120.884 21.3018 121.353 21.082 121.685 20.6426C122.017 20.1999 122.188 19.5667 122.197 18.7432V18.2158ZM130 22H129.058L125.479 16.5215V22H124.536V14.8906H125.479L129.067 20.3936V14.8906H130V22ZM138.862 15.6621H136.577V22H135.645V15.6621H133.364V14.8906H138.862V15.6621ZM145.381 22H144.438V18.7139H140.854V22H139.917V14.8906H140.854V17.9473H144.438V14.8906H145.381V22ZM151.064 18.7139H147.983V21.2334H151.562V22H147.046V14.8906H151.514V15.6621H147.983V17.9473H151.064V18.7139Z" fill="white"/>
<path d="M70.3447 40.3584H64.2861L63.0186 44H60.1934L66.1016 28.3594H68.54L74.459 44H71.623L70.3447 40.3584ZM65.0488 38.167H69.582L67.3154 31.6787L65.0488 38.167ZM85.6523 38.3066C85.6523 40.1042 85.2441 41.54 84.4277 42.6143C83.6113 43.6813 82.5156 44.2148 81.1406 44.2148C79.8659 44.2148 78.8454 43.7959 78.0791 42.958V48.4688H75.4688V32.377H77.875L77.9824 33.5586C78.7487 32.6276 79.7907 32.1621 81.1084 32.1621C82.5264 32.1621 83.6364 32.6921 84.4385 33.752C85.2477 34.8047 85.6523 36.2692 85.6523 38.1455V38.3066ZM83.0527 38.0811C83.0527 36.9209 82.82 36.0007 82.3545 35.3203C81.8962 34.64 81.2373 34.2998 80.3779 34.2998C79.3109 34.2998 78.5446 34.7402 78.0791 35.6211V40.7773C78.5518 41.6797 79.3252 42.1309 80.3994 42.1309C81.2301 42.1309 81.8783 41.7979 82.3438 41.1318C82.8164 40.4587 83.0527 39.4417 83.0527 38.0811ZM98.0488 38.3066C98.0488 40.1042 97.6406 41.54 96.8242 42.6143C96.0078 43.6813 94.9121 44.2148 93.5371 44.2148C92.2624 44.2148 91.2419 43.7959 90.4756 42.958V48.4688H87.8652V32.377H90.2715L90.3789 33.5586C91.1452 32.6276 92.1872 32.1621 93.5049 32.1621C94.9229 32.1621 96.0329 32.6921 96.835 33.752C97.6442 34.8047 98.0488 36.2692 98.0488 38.1455V38.3066ZM95.4492 38.0811C95.4492 36.9209 95.2165 36.0007 94.751 35.3203C94.2926 34.64 93.6338 34.2998 92.7744 34.2998C91.7074 34.2998 90.9411 34.7402 90.4756 35.6211V40.7773C90.9482 41.6797 91.7217 42.1309 92.7959 42.1309C93.6266 42.1309 94.2747 41.7979 94.7402 41.1318C95.2129 40.4587 95.4492 39.4417 95.4492 38.0811ZM114.173 39.9717C114.173 39.2842 113.929 38.7542 113.442 38.3818C112.963 38.0094 112.092 37.6335 110.832 37.2539C109.572 36.8743 108.569 36.4518 107.824 35.9863C106.399 35.0911 105.687 33.9238 105.687 32.4844C105.687 31.224 106.199 30.1855 107.223 29.3691C108.254 28.5527 109.59 28.1445 111.229 28.1445C112.318 28.1445 113.288 28.3451 114.141 28.7461C114.993 29.1471 115.662 29.7201 116.149 30.4648C116.636 31.2025 116.88 32.0225 116.88 32.9248H114.173C114.173 32.1084 113.915 31.471 113.399 31.0127C112.891 30.5472 112.16 30.3145 111.208 30.3145C110.32 30.3145 109.629 30.5042 109.135 30.8838C108.648 31.2633 108.404 31.7933 108.404 32.4736C108.404 33.0465 108.669 33.5264 109.199 33.9131C109.729 34.2926 110.603 34.665 111.82 35.0303C113.038 35.3883 114.015 35.8001 114.753 36.2656C115.491 36.724 116.031 37.2539 116.375 37.8555C116.719 38.4499 116.891 39.1481 116.891 39.9502C116.891 41.2536 116.389 42.292 115.387 43.0654C114.391 43.8317 113.038 44.2148 111.326 44.2148C110.195 44.2148 109.153 44.0072 108.2 43.5918C107.255 43.1693 106.517 42.5892 105.987 41.8516C105.465 41.1139 105.203 40.2546 105.203 39.2734H107.921C107.921 40.1615 108.215 40.849 108.802 41.3359C109.389 41.8229 110.23 42.0664 111.326 42.0664C112.271 42.0664 112.98 41.8766 113.453 41.4971C113.933 41.1104 114.173 40.6019 114.173 39.9717ZM122.294 29.5518V32.377H124.346V34.3105H122.294V40.7988C122.294 41.2428 122.38 41.5651 122.552 41.7656C122.731 41.959 123.046 42.0557 123.497 42.0557C123.798 42.0557 124.102 42.0199 124.41 41.9482V43.9678C123.816 44.1325 123.243 44.2148 122.691 44.2148C120.686 44.2148 119.684 43.1084 119.684 40.8955V34.3105H117.771V32.377H119.684V29.5518H122.294ZM125.538 38.0811C125.538 36.9424 125.764 35.9183 126.215 35.0088C126.666 34.0921 127.3 33.3903 128.116 32.9033C128.933 32.4092 129.871 32.1621 130.931 32.1621C132.499 32.1621 133.77 32.667 134.744 33.6768C135.725 34.6865 136.255 36.0257 136.334 37.6943L136.345 38.3066C136.345 39.4525 136.123 40.4766 135.679 41.3789C135.242 42.2812 134.612 42.9795 133.788 43.4736C132.972 43.9678 132.026 44.2148 130.952 44.2148C129.312 44.2148 127.998 43.6706 127.01 42.582C126.029 41.4863 125.538 40.029 125.538 38.21V38.0811ZM128.148 38.3066C128.148 39.5026 128.396 40.4408 128.89 41.1211C129.384 41.7943 130.071 42.1309 130.952 42.1309C131.833 42.1309 132.517 41.7871 133.004 41.0996C133.498 40.4121 133.745 39.4059 133.745 38.0811C133.745 36.9066 133.491 35.9756 132.982 35.2881C132.481 34.6006 131.797 34.2568 130.931 34.2568C130.078 34.2568 129.402 34.597 128.9 35.2773C128.399 35.9505 128.148 36.9603 128.148 38.3066ZM144.638 34.7617C144.294 34.7044 143.939 34.6758 143.574 34.6758C142.378 34.6758 141.573 35.1341 141.157 36.0508V44H138.547V32.377H141.039L141.104 33.6768C141.734 32.667 142.607 32.1621 143.725 32.1621C144.097 32.1621 144.405 32.2122 144.648 32.3125L144.638 34.7617ZM151.19 44.2148C149.536 44.2148 148.193 43.6956 147.162 42.6572C146.138 41.6117 145.626 40.2223 145.626 38.4893V38.167C145.626 37.0068 145.848 35.972 146.292 35.0625C146.743 34.1458 147.373 33.4333 148.183 32.9248C148.992 32.4163 149.894 32.1621 150.89 32.1621C152.472 32.1621 153.693 32.667 154.553 33.6768C155.419 34.6865 155.853 36.1152 155.853 37.9629V39.0156H148.258C148.337 39.9753 148.655 40.7344 149.214 41.293C149.78 41.8516 150.489 42.1309 151.341 42.1309C152.537 42.1309 153.511 41.6475 154.263 40.6807L155.67 42.0234C155.204 42.7181 154.581 43.2588 153.801 43.6455C153.027 44.0251 152.157 44.2148 151.19 44.2148ZM150.879 34.2568C150.163 34.2568 149.583 34.5075 149.139 35.0088C148.702 35.5101 148.423 36.2083 148.301 37.1035H153.274V36.9102C153.217 36.0365 152.984 35.3776 152.576 34.9336C152.168 34.4824 151.602 34.2568 150.879 34.2568Z" fill="white"/>
<path d="M45.4138 38.4193C44.9292 39.5489 44.3305 40.6261 43.627 41.634C42.6873 42.9763 41.9155 43.9038 41.324 44.42C40.4053 45.2635 39.4183 45.6975 38.363 45.722C37.607 45.722 36.6935 45.5068 35.6295 45.0693C34.562 44.6335 33.582 44.42 32.6843 44.42C31.7445 44.42 30.7365 44.6335 29.6568 45.0693C28.5788 45.5068 27.7073 45.736 27.0405 45.757C26.0308 45.8008 25.021 45.3563 24.0148 44.42C23.3725 43.86 22.5693 42.8975 21.605 41.536C20.5725 40.0853 19.7238 38.3965 19.0588 36.4768C18.3465 34.3995 17.9895 32.3905 17.9895 30.4445C17.9895 28.2168 18.4708 26.2935 19.435 24.6835C20.1643 23.4191 21.207 22.3638 22.4625 21.6193C23.7006 20.8767 25.1139 20.4769 26.5575 20.4608C27.3625 20.4608 28.4178 20.7093 29.725 21.1993C31.0323 21.6893 31.8723 21.9378 32.238 21.9378C32.5145 21.9378 33.4438 21.6455 35.0258 21.0663C36.5185 20.529 37.7785 20.3068 38.811 20.3943C41.611 20.62 43.7128 21.7225 45.111 23.7105C42.6085 25.2278 41.3713 27.3505 41.3958 30.0753C41.4168 32.198 42.1885 33.9638 43.7005 35.3655C44.369 36.0052 45.1489 36.5171 46.0018 36.8758C45.8163 37.413 45.6203 37.9258 45.4138 38.4193V38.4193ZM38.9965 13.165C38.9965 14.8275 38.3875 16.3815 37.1783 17.8183C35.7153 19.5263 33.9478 20.515 32.0315 20.3593C32.0064 20.1502 31.9942 19.9398 31.9948 19.7293C31.9948 18.1315 32.6878 16.4235 33.925 15.0253C34.541 14.3183 35.325 13.7285 36.2753 13.2595C37.2238 12.7975 38.1198 12.542 38.9633 12.4983C38.986 12.7223 38.9965 12.9445 38.9965 13.165V13.165Z" fill="white"/>
</svg>
