<svg width="48" height="48" viewBox="0 0 48 48" fill="none" xmlns="http://www.w3.org/2000/svg">
<path d="M42 14H30C29.4696 14 28.9609 14.2107 28.5858 14.5858C28.2107 14.9609 28 15.4696 28 16V22H24V8C24 7.46957 23.7893 6.96086 23.4142 6.58579C23.0391 6.21071 22.5304 6 22 6H6C5.46957 6 4.96086 6.21071 4.58579 6.58579C4.21071 6.96086 4 7.46957 4 8V40C4 40.5304 4.21071 41.0391 4.58579 41.4142C4.96086 41.7893 5.46957 42 6 42H42C42.5304 42 43.0391 41.7893 43.4142 41.4142C43.7893 41.0391 44 40.5304 44 40V16C44 15.4696 43.7893 14.9609 43.4142 14.5858C43.0391 14.2107 42.5304 14 42 14ZM16 12H20V16H16V12ZM12 32H8V28H12V32ZM12 24H8V20H12V24ZM12 16H8V12H12V16ZM20 32H16V28H20V32ZM20 24H16V20H20V24ZM38 32H34V28H38V32ZM38 24H34V20H38V24Z" fill="#FAD02C"/>
</svg>
