<svg width="48" height="48" viewBox="0 0 48 48" fill="none" xmlns="http://www.w3.org/2000/svg">
<path d="M20 36C23.55 35.9993 26.9976 34.8109 29.794 32.624L38.586 41.416L41.414 38.588L32.622 29.796C34.81 26.9993 35.9991 23.5509 36 20C36 11.178 28.822 4 20 4C11.178 4 4 11.178 4 20C4 28.822 11.178 36 20 36ZM20 8C26.618 8 32 13.382 32 20C32 26.618 26.618 32 20 32C13.382 32 8 26.618 8 20C8 13.382 13.382 8 20 8Z" fill="#FAD02C"/>
<path d="M22.8241 17.1719C23.5821 17.9319 24.0001 18.9359 24.0001 19.9999H28.0001C28.0019 18.9488 27.7953 17.9077 27.3923 16.9369C26.9893 15.9661 26.3978 15.0848 25.6521 14.3439C22.6241 11.3199 17.3741 11.3199 14.3481 14.3439L17.1721 17.1759C18.6921 15.6599 21.3121 15.6639 22.8241 17.1719Z" fill="#FAD02C"/>
</svg>
