<svg width="48" height="48" viewBox="0 0 48 48" fill="none" xmlns="http://www.w3.org/2000/svg">
<path d="M40.588 16.584L31.988 25.168L29.404 22.584L26.576 25.412L31.988 30.82L43.412 19.416L40.588 16.584ZM8 16C8 20.56 11.44 24 16 24C20.56 24 24 20.56 24 16C24 11.44 20.56 8 16 8C11.44 8 8 11.44 8 16ZM20 16C20 18.356 18.356 20 16 20C13.644 20 12 18.356 12 16C12 13.644 13.644 12 16 12C18.356 12 20 13.644 20 16ZM8 36C8 32.692 10.692 30 14 30H18C21.308 30 24 32.692 24 36V38H28V36C28 30.486 23.514 26 18 26H14C8.486 26 4 30.486 4 36V38H8V36Z" fill="#FAD02C"/>
</svg>
