<svg width="191" height="48" viewBox="0 0 191 48" fill="none" xmlns="http://www.w3.org/2000/svg">
<path d="M16 26H20V40H16V26ZM22 30H26V44H22V30ZM28 26H32V40H28V26Z" fill="#202124"/>
<path d="M37.888 20.226C37.014 13.342 31.12 8.00195 24 8.00195C18.488 8.00195 13.7 11.224 11.514 16.302C7.218 17.586 4 21.64 4 26.002C4 31.516 8.486 36.002 14 36.002V32.002C10.692 32.002 8 29.31 8 26.002C8 23.196 10.398 20.49 13.346 19.972L14.508 19.766L14.892 18.648C16.298 14.548 19.79 12.002 24 12.002C29.514 12.002 34 16.488 34 22.002V24.002H36C38.206 24.002 40 25.796 40 28.002C40 30.208 38.206 32.002 36 32.002H34V36.002H36C40.412 36.002 44 32.414 44 28.002C43.9976 26.209 43.3942 24.4686 42.2862 23.0589C41.1782 21.6493 39.6297 20.6518 37.888 20.226V20.226Z" fill="#202124"/>
<path d="M68.775 35.324C67.659 35.324 66.624 35.306 65.67 35.27C64.716 35.234 63.411 35.153 61.755 35.027V16.424H71.043C72.357 16.424 73.536 16.613 74.58 16.991C75.642 17.351 76.47 17.873 77.064 18.557C77.658 19.241 77.955 20.033 77.955 20.933C77.955 22.049 77.712 22.931 77.226 23.579C76.74 24.209 76.002 24.65 75.012 24.902C77.532 25.298 78.792 26.783 78.792 29.357C78.792 31.139 77.973 32.579 76.335 33.677C74.715 34.775 72.195 35.324 68.775 35.324ZM69.909 23.768C70.611 23.768 71.187 23.597 71.637 23.255C72.105 22.913 72.339 22.472 72.339 21.932C72.339 20.654 71.547 20.015 69.963 20.015H67.776V23.768H69.909ZM69.801 31.085C70.791 31.085 71.547 30.905 72.069 30.545C72.609 30.167 72.879 29.645 72.879 28.979C72.879 28.259 72.636 27.71 72.15 27.332C71.664 26.936 70.971 26.738 70.071 26.738H67.749V31.004C68.559 31.058 69.243 31.085 69.801 31.085ZM86.776 35.216C85.606 35.216 84.508 34.91 83.482 34.298C82.474 33.668 81.664 32.822 81.052 31.76C80.44 30.68 80.134 29.483 80.134 28.169C80.134 26.873 80.44 25.703 81.052 24.659C81.664 23.597 82.483 22.769 83.509 22.175C84.535 21.581 85.624 21.284 86.776 21.284C87.712 21.284 88.576 21.545 89.368 22.067C90.178 22.589 90.79 23.372 91.204 24.416V21.284H96.874V35H91.204V32.489C90.304 34.307 88.828 35.216 86.776 35.216ZM88.531 30.95C89.251 30.95 89.863 30.698 90.367 30.194C90.889 29.672 91.168 29.06 91.204 28.358V28.142C91.168 27.422 90.88 26.81 90.34 26.306C89.818 25.802 89.215 25.55 88.531 25.55C87.775 25.55 87.127 25.82 86.587 26.36C86.065 26.882 85.804 27.512 85.804 28.25C85.804 29.006 86.074 29.645 86.614 30.167C87.154 30.689 87.793 30.95 88.531 30.95ZM105.522 35.216C104.298 35.216 103.182 34.892 102.174 34.244C101.184 33.596 100.401 32.741 99.8248 31.679C99.2488 30.599 98.9608 29.456 98.9608 28.25C98.9608 26.972 99.2578 25.802 99.8518 24.74C100.464 23.66 101.274 22.814 102.282 22.202C103.308 21.59 104.397 21.284 105.549 21.284C106.593 21.284 107.475 21.5 108.195 21.932C108.933 22.364 109.527 23.057 109.977 24.011V17.207L115.674 16.37V35H109.977V32.489C109.131 34.307 107.646 35.216 105.522 35.216ZM107.304 30.95C108.06 30.95 108.69 30.68 109.194 30.14C109.716 29.6 109.977 28.97 109.977 28.25V28.142C109.977 27.44 109.707 26.837 109.167 26.333C108.627 25.811 108.006 25.55 107.304 25.55C106.548 25.55 105.909 25.82 105.387 26.36C104.883 26.882 104.631 27.512 104.631 28.25C104.631 29.006 104.892 29.645 105.414 30.167C105.954 30.689 106.584 30.95 107.304 30.95ZM126.765 20.528H122.904V16.424H136.917V20.528H133.056V35H126.765V20.528ZM143.806 35.216C142.294 35.216 141.115 34.73 140.269 33.758C139.423 32.786 139 31.463 139 29.789V21.473H144.724V29.546C144.724 29.96 144.832 30.284 145.048 30.518C145.282 30.734 145.579 30.842 145.939 30.842C146.299 30.842 146.668 30.734 147.046 30.518L147.343 34.271C146.947 34.577 146.425 34.811 145.777 34.973C145.147 35.135 144.49 35.216 143.806 35.216ZM141.862 19.448C141.016 19.448 140.296 19.187 139.702 18.665C139.126 18.125 138.838 17.468 138.838 16.694C138.838 15.92 139.144 15.272 139.756 14.75C140.368 14.228 141.07 13.967 141.862 13.967C142.69 13.967 143.401 14.237 143.995 14.777C144.607 15.317 144.913 15.956 144.913 16.694C144.913 17.486 144.607 18.143 143.995 18.665C143.383 19.187 142.672 19.448 141.862 19.448ZM148.915 21.662H154.342V24.416C154.954 23.354 155.647 22.571 156.421 22.067C157.213 21.545 158.149 21.284 159.229 21.284C160.291 21.284 161.209 21.554 161.983 22.094C162.775 22.616 163.369 23.327 163.765 24.227C164.917 22.265 166.591 21.284 168.787 21.284C169.831 21.284 170.74 21.563 171.514 22.121C172.306 22.679 172.918 23.489 173.35 24.551C173.782 25.595 173.998 26.828 173.998 28.25V35H168.301V28.25C168.301 27.332 168.139 26.639 167.815 26.171C167.509 25.703 167.077 25.469 166.519 25.469C165.907 25.469 165.376 25.73 164.926 26.252C164.494 26.774 164.278 27.404 164.278 28.142V35H158.635V28.25C158.635 27.332 158.473 26.639 158.149 26.171C157.843 25.703 157.402 25.469 156.826 25.469C156.214 25.469 155.692 25.73 155.26 26.252C154.828 26.774 154.612 27.404 154.612 28.142V35H148.915V21.662ZM183.62 35.216C182.126 35.216 180.794 34.919 179.624 34.325C178.472 33.713 177.572 32.885 176.924 31.841C176.276 30.779 175.952 29.582 175.952 28.25C175.952 26.882 176.285 25.667 176.951 24.605C177.617 23.543 178.517 22.724 179.651 22.148C180.785 21.572 182.045 21.284 183.431 21.284C184.763 21.284 185.897 21.581 186.833 22.175C187.787 22.751 188.498 23.543 188.966 24.551C189.434 25.541 189.668 26.657 189.668 27.899C189.668 28.223 189.65 28.457 189.614 28.601L181.514 29.654C181.73 30.284 182.081 30.743 182.567 31.031C183.053 31.301 183.692 31.436 184.484 31.436C185.708 31.436 187.031 31.121 188.453 30.491L189.128 34.109C187.454 34.847 185.618 35.216 183.62 35.216ZM185.483 26.252C185.195 25.118 184.511 24.551 183.431 24.551C182.783 24.551 182.27 24.794 181.892 25.28C181.514 25.766 181.316 26.396 181.298 27.17L185.483 26.252Z" fill="#202124"/>
</svg>
