<svg width="232" height="48" viewBox="0 0 232 48" fill="none" xmlns="http://www.w3.org/2000/svg">
<path d="M22.0001 30.8279V39.9999H26.0001V30.8279C26.0001 29.7759 25.5721 28.7439 24.8281 27.9999L20.8281 23.9999L26.0001 18.8279L30.0001 22.8279C30.7441 23.5719 31.7761 23.9999 32.8281 23.9999H40.0001V19.9999H32.8281L25.4141 12.5859C25.2286 12.4 25.0081 12.2525 24.7655 12.1519C24.5229 12.0513 24.2628 11.9995 24.0001 11.9995C23.7375 11.9995 23.4774 12.0513 23.2347 12.1519C22.9921 12.2525 22.7717 12.4 22.5861 12.5859L16.0001 19.1719C15.2441 19.9279 14.8281 20.9319 14.8281 21.9999C14.8281 23.0679 15.2441 24.0719 16.0001 24.8279L22.0001 30.8279Z" fill="#202124"/>
<path d="M32 14C34.2091 14 36 12.2091 36 10C36 7.79086 34.2091 6 32 6C29.7909 6 28 7.79086 28 10C28 12.2091 29.7909 14 32 14Z" fill="#202124"/>
<path d="M36 28C31.588 28 28 31.588 28 36C28 40.412 31.588 44 36 44C40.412 44 44 40.412 44 36C44 31.588 40.412 28 36 28ZM36 40C33.794 40 32 38.206 32 36C32 33.794 33.794 32 36 32C38.206 32 40 33.794 40 36C40 38.206 38.206 40 36 40ZM12 44C16.412 44 20 40.412 20 36C20 31.588 16.412 28 12 28C7.588 28 4 31.588 4 36C4 40.412 7.588 44 12 44ZM12 32C14.206 32 16 33.794 16 36C16 38.206 14.206 40 12 40C9.794 40 8 38.206 8 36C8 33.794 9.794 32 12 32Z" fill="#202124"/>
<path d="M66.561 33C65.553 33 64.743 32.919 64.131 32.757C63.519 32.595 63.042 32.37 62.7 32.082C62.376 31.776 62.151 31.407 62.025 30.975C61.917 30.543 61.836 30.057 61.782 29.517C61.728 28.887 61.683 28.059 61.647 27.033C61.629 25.989 61.62 24.909 61.62 23.793C61.62 23.253 61.62 22.686 61.62 22.092C61.638 21.48 61.647 20.886 61.647 20.31C61.665 19.716 61.683 19.167 61.701 18.663C61.719 18.159 61.746 17.727 61.782 17.367C61.836 16.809 61.926 16.305 62.052 15.855C62.178 15.405 62.412 15.018 62.754 14.694C63.114 14.37 63.609 14.127 64.239 13.965C64.887 13.785 65.742 13.695 66.804 13.695C69.216 13.695 71.016 14.145 72.204 15.045C73.41 15.927 74.013 17.187 74.013 18.825C74.013 19.671 73.824 20.454 73.446 21.174C73.086 21.894 72.456 22.434 71.556 22.794C72.06 22.884 72.519 23.073 72.933 23.361C73.347 23.649 73.698 24 73.986 24.414C74.292 24.81 74.517 25.26 74.661 25.764C74.823 26.25 74.904 26.745 74.904 27.249C74.904 27.897 74.769 28.563 74.499 29.247C74.229 29.913 73.77 30.525 73.122 31.083C72.474 31.641 71.61 32.1 70.53 32.46C69.468 32.82 68.145 33 66.561 33ZM72.204 27.168C72.204 26.52 72.051 25.998 71.745 25.602C71.457 25.206 71.079 24.909 70.611 24.711C70.143 24.495 69.621 24.351 69.045 24.279C68.469 24.207 67.893 24.171 67.317 24.171C66.867 24.171 66.399 24.171 65.913 24.171C65.427 24.171 64.977 24.18 64.563 24.198C64.545 24.576 64.527 24.963 64.509 25.359C64.491 25.755 64.473 26.133 64.455 26.493C64.455 26.835 64.455 27.141 64.455 27.411C64.455 27.663 64.455 27.843 64.455 27.951C64.455 28.437 64.491 28.842 64.563 29.166C64.635 29.49 64.77 29.751 64.968 29.949C65.166 30.147 65.445 30.291 65.805 30.381C66.183 30.453 66.66 30.489 67.236 30.489C68.82 30.489 70.044 30.21 70.908 29.652C71.772 29.094 72.204 28.266 72.204 27.168ZM67.209 16.26C66.615 16.26 66.129 16.314 65.751 16.422C65.391 16.512 65.112 16.638 64.914 16.8C64.734 16.962 64.608 17.16 64.536 17.394C64.482 17.628 64.455 17.88 64.455 18.15V21.93C64.707 21.948 64.968 21.957 65.238 21.957C65.526 21.957 65.796 21.957 66.048 21.957C66.696 21.957 67.326 21.912 67.938 21.822C68.568 21.732 69.135 21.579 69.639 21.363C70.143 21.147 70.548 20.85 70.854 20.472C71.16 20.094 71.313 19.608 71.313 19.014C71.313 18.204 70.98 17.547 70.314 17.043C69.666 16.521 68.631 16.26 67.209 16.26ZM77.5508 31.326C77.5148 30.66 77.4788 29.904 77.4428 29.058C77.4248 28.194 77.4158 27.249 77.4158 26.223C77.4158 24.945 77.4248 23.856 77.4428 22.956C77.4608 22.038 77.5058 21.291 77.5778 20.715C77.6678 20.121 77.8028 19.689 77.9828 19.419C78.1628 19.131 78.4148 18.987 78.7388 18.987C79.0448 18.987 79.3148 19.095 79.5488 19.311C79.7828 19.527 79.9178 19.995 79.9538 20.715C80.0618 22.605 80.1158 24.432 80.1158 26.196C80.1158 27.096 80.0978 27.942 80.0618 28.734C80.0258 29.508 79.9898 30.363 79.9538 31.299C79.9358 31.731 79.8908 32.064 79.8188 32.298C79.7648 32.532 79.6838 32.712 79.5758 32.838C79.4678 32.964 79.3418 33.036 79.1978 33.054C79.0718 33.09 78.9188 33.108 78.7388 33.108C78.4148 33.108 78.1448 33 77.9288 32.784C77.7128 32.55 77.5868 32.064 77.5508 31.326ZM78.7658 14.1C79.1798 14.1 79.5578 14.262 79.8998 14.586C80.2598 14.91 80.4398 15.297 80.4398 15.747C80.4398 16.179 80.2598 16.557 79.8998 16.881C79.5398 17.187 79.1348 17.34 78.6848 17.34C78.3068 17.34 77.9468 17.187 77.6048 16.881C77.2808 16.557 77.1188 16.161 77.1188 15.693C77.1188 15.261 77.2808 14.892 77.6048 14.586C77.9468 14.262 78.3338 14.1 78.7658 14.1ZM83.5607 31.569C83.5247 31.173 83.4977 30.579 83.4797 29.787C83.4617 28.977 83.4437 28.05 83.4257 27.006C83.4077 25.944 83.3987 24.792 83.3987 23.55C83.3987 22.308 83.3987 21.039 83.3987 19.743C83.3987 18.213 83.4077 16.962 83.4257 15.99C83.4437 15.018 83.4977 14.253 83.5877 13.695C83.6777 13.137 83.8217 12.759 84.0197 12.561C84.2177 12.345 84.5057 12.237 84.8837 12.237C85.2077 12.237 85.4417 12.345 85.5857 12.561C85.7297 12.759 85.8377 13.209 85.9097 13.911C85.9457 14.343 85.9727 14.928 85.9907 15.666C86.0267 16.386 86.0447 17.178 86.0447 18.042C86.0627 18.906 86.0717 19.806 86.0717 20.742C86.0897 21.678 86.0987 22.569 86.0987 23.415V25.602L92.0927 20.175C92.2907 19.995 92.5247 19.824 92.7947 19.662C93.0827 19.482 93.3797 19.392 93.6857 19.392C94.0457 19.392 94.3157 19.536 94.4957 19.824C94.6757 20.094 94.7657 20.409 94.7657 20.769C94.7657 20.967 94.7297 21.156 94.6577 21.336C94.6037 21.498 94.4777 21.651 94.2797 21.795L90.6347 24.792L95.0627 31.218C95.2247 31.434 95.3057 31.677 95.3057 31.947C95.3057 32.343 95.1797 32.64 94.9277 32.838C94.6757 33.036 94.3517 33.135 93.9557 33.135C93.6677 33.135 93.4157 33.081 93.1997 32.973C92.9837 32.865 92.7767 32.658 92.5787 32.352L88.5287 26.493L86.0717 28.518C86.0537 29.184 86.0357 29.778 86.0177 30.3C85.9997 30.822 85.9727 31.236 85.9367 31.542C85.8647 32.172 85.7477 32.586 85.5857 32.784C85.4237 32.982 85.1357 33.081 84.7217 33.081C84.3077 33.081 84.0197 32.982 83.8577 32.784C83.7137 32.586 83.6147 32.181 83.5607 31.569ZM103.954 28.032C103.324 28.032 102.658 27.987 101.956 27.897C101.272 27.789 100.525 27.573 99.7153 27.249C99.8773 28.347 100.327 29.175 101.065 29.733C101.821 30.291 102.901 30.57 104.305 30.57C104.809 30.57 105.259 30.543 105.655 30.489C106.069 30.417 106.429 30.345 106.735 30.273C107.041 30.183 107.311 30.111 107.545 30.057C107.779 29.985 107.995 29.949 108.193 29.949C108.445 29.949 108.688 30.03 108.922 30.192C109.156 30.336 109.273 30.588 109.273 30.948C109.273 31.398 109.084 31.767 108.706 32.055C108.346 32.343 107.896 32.577 107.356 32.757C106.834 32.919 106.276 33.027 105.682 33.081C105.088 33.153 104.566 33.189 104.116 33.189C103.054 33.189 102.073 33.045 101.173 32.757C100.291 32.469 99.5263 32.037 98.8783 31.461C98.2303 30.867 97.7263 30.138 97.3663 29.274C97.0063 28.41 96.8263 27.402 96.8263 26.25C96.8263 25.134 96.9973 24.144 97.3393 23.28C97.6993 22.416 98.1853 21.687 98.7973 21.093C99.4093 20.499 100.129 20.049 100.957 19.743C101.803 19.437 102.712 19.284 103.684 19.284C104.44 19.284 105.169 19.383 105.871 19.581C106.591 19.779 107.221 20.076 107.761 20.472C108.319 20.868 108.76 21.372 109.084 21.984C109.426 22.578 109.597 23.28 109.597 24.09C109.597 24.81 109.462 25.422 109.192 25.926C108.922 26.43 108.535 26.835 108.031 27.141C107.545 27.447 106.951 27.672 106.249 27.816C105.565 27.96 104.8 28.032 103.954 28.032ZM103.765 21.768C103.279 21.768 102.811 21.831 102.361 21.957C101.911 22.065 101.497 22.254 101.119 22.524C100.759 22.776 100.453 23.118 100.201 23.55C99.9493 23.964 99.7783 24.486 99.6883 25.116C100.372 25.422 101.038 25.638 101.686 25.764C102.334 25.872 103.018 25.926 103.738 25.926C104.8 25.926 105.583 25.8 106.087 25.548C106.609 25.278 106.87 24.801 106.87 24.117C106.87 23.487 106.627 22.938 106.141 22.47C105.673 22.002 104.881 21.768 103.765 21.768ZM125.639 13.884C126.233 13.884 126.827 13.938 127.421 14.046C128.033 14.136 128.582 14.289 129.068 14.505C129.554 14.703 129.95 14.955 130.256 15.261C130.58 15.549 130.742 15.891 130.742 16.287C130.742 16.701 130.634 17.016 130.418 17.232C130.202 17.448 129.932 17.556 129.608 17.556C129.302 17.556 129.032 17.511 128.798 17.421C128.564 17.313 128.294 17.196 127.988 17.07C127.7 16.944 127.349 16.836 126.935 16.746C126.521 16.638 125.972 16.584 125.288 16.584C124.604 16.584 123.947 16.764 123.317 17.124C122.705 17.466 122.165 17.952 121.697 18.582C121.247 19.194 120.887 19.923 120.617 20.769C120.347 21.615 120.212 22.533 120.212 23.523C120.212 24.747 120.365 25.8 120.671 26.682C120.995 27.564 121.409 28.293 121.913 28.869C122.417 29.427 122.984 29.85 123.614 30.138C124.262 30.408 124.91 30.543 125.558 30.543C126.332 30.543 126.98 30.462 127.502 30.3C128.024 30.138 128.465 29.958 128.825 29.76C129.203 29.562 129.527 29.382 129.797 29.22C130.067 29.058 130.328 28.977 130.58 28.977C130.886 28.977 131.129 29.067 131.309 29.247C131.489 29.409 131.579 29.706 131.579 30.138C131.579 30.498 131.435 30.867 131.147 31.245C130.877 31.605 130.472 31.938 129.932 32.244C129.41 32.532 128.78 32.775 128.042 32.973C127.304 33.153 126.476 33.243 125.558 33.243C124.55 33.243 123.542 33.045 122.534 32.649C121.544 32.253 120.653 31.668 119.861 30.894C119.087 30.102 118.457 29.121 117.971 27.951C117.485 26.763 117.242 25.386 117.242 23.82C117.242 22.254 117.458 20.859 117.89 19.635C118.34 18.411 118.943 17.376 119.699 16.53C120.473 15.666 121.364 15.009 122.372 14.559C123.398 14.109 124.487 13.884 125.639 13.884ZM140.209 19.311C141.235 19.311 142.153 19.473 142.963 19.797C143.773 20.103 144.457 20.544 145.015 21.12C145.591 21.696 146.032 22.398 146.338 23.226C146.644 24.054 146.797 24.981 146.797 26.007C146.797 27.141 146.617 28.158 146.257 29.058C145.915 29.958 145.429 30.723 144.799 31.353C144.187 31.983 143.449 32.469 142.585 32.811C141.739 33.153 140.812 33.324 139.804 33.324C138.706 33.324 137.734 33.135 136.888 32.757C136.06 32.379 135.358 31.866 134.782 31.218C134.224 30.57 133.801 29.823 133.513 28.977C133.225 28.131 133.081 27.24 133.081 26.304C133.081 25.278 133.243 24.342 133.567 23.496C133.909 22.632 134.386 21.894 134.998 21.282C135.628 20.652 136.384 20.166 137.266 19.824C138.148 19.482 139.129 19.311 140.209 19.311ZM139.912 30.84C140.65 30.84 141.28 30.714 141.802 30.462C142.324 30.192 142.747 29.841 143.071 29.409C143.413 28.977 143.656 28.491 143.8 27.951C143.962 27.393 144.043 26.817 144.043 26.223C144.043 25.611 143.962 25.044 143.8 24.522C143.656 23.982 143.422 23.514 143.098 23.118C142.792 22.722 142.387 22.416 141.883 22.2C141.397 21.966 140.812 21.849 140.128 21.849C139.426 21.849 138.814 21.966 138.292 22.2C137.77 22.434 137.329 22.758 136.969 23.172C136.627 23.568 136.366 24.045 136.186 24.603C136.006 25.161 135.916 25.764 135.916 26.412C135.916 27.726 136.249 28.797 136.915 29.625C137.599 30.435 138.598 30.84 139.912 30.84ZM167.41 32.19C167.302 31.884 167.23 31.542 167.194 31.164C167.176 30.786 167.167 30.318 167.167 29.76C167.167 29.364 167.167 29.058 167.167 28.842C167.185 28.608 167.194 28.41 167.194 28.248C167.194 28.068 167.194 27.897 167.194 27.735C167.212 27.555 167.221 27.312 167.221 27.006C167.221 26.376 167.203 25.746 167.167 25.116C167.149 24.468 167.059 23.892 166.897 23.388C166.735 22.866 166.483 22.443 166.141 22.119C165.799 21.795 165.304 21.633 164.656 21.633C163.558 21.633 162.703 22.155 162.091 23.199C161.479 24.243 161.11 25.908 160.984 28.194C160.948 28.914 160.93 29.571 160.93 30.165C160.93 30.759 160.894 31.272 160.822 31.704C160.75 32.118 160.615 32.442 160.417 32.676C160.237 32.91 159.931 33.027 159.499 33.027C159.103 33.027 158.815 32.928 158.635 32.73C158.455 32.514 158.32 32.199 158.23 31.785C158.158 31.371 158.113 30.867 158.095 30.273C158.095 29.679 158.068 28.986 158.014 28.194C157.96 27.33 157.87 26.502 157.744 25.71C157.636 24.918 157.447 24.225 157.177 23.631C156.925 23.019 156.574 22.533 156.124 22.173C155.692 21.813 155.134 21.633 154.45 21.633C153.802 21.633 153.298 21.795 152.938 22.119C152.596 22.425 152.344 22.839 152.182 23.361C152.02 23.865 151.921 24.441 151.885 25.089C151.867 25.719 151.858 26.358 151.858 27.006C151.858 27.33 151.858 27.573 151.858 27.735C151.876 27.879 151.885 28.014 151.885 28.14C151.885 28.266 151.885 28.428 151.885 28.626C151.903 28.824 151.912 29.13 151.912 29.544C151.912 30.138 151.894 30.651 151.858 31.083C151.84 31.515 151.777 31.884 151.669 32.19C151.543 32.55 151.372 32.775 151.156 32.865C150.94 32.937 150.742 32.973 150.562 32.973C150.004 32.973 149.644 32.775 149.482 32.379C149.32 31.983 149.23 31.407 149.212 30.651C149.212 30.237 149.203 29.778 149.185 29.274C149.185 28.752 149.185 28.122 149.185 27.384C149.185 27.024 149.185 26.709 149.185 26.439C149.185 26.169 149.185 25.908 149.185 25.656C149.203 25.404 149.212 25.152 149.212 24.9C149.23 24.63 149.248 24.324 149.266 23.982C149.32 22.884 149.518 22.011 149.86 21.363C150.202 20.697 150.607 20.193 151.075 19.851C151.543 19.509 152.047 19.293 152.587 19.203C153.127 19.095 153.622 19.041 154.072 19.041C155.044 19.041 155.863 19.185 156.529 19.473C157.195 19.761 157.735 20.139 158.149 20.607C158.581 21.075 158.896 21.606 159.094 22.2C159.31 22.794 159.454 23.397 159.526 24.009C159.598 23.415 159.742 22.83 159.958 22.254C160.192 21.66 160.525 21.138 160.957 20.688C161.407 20.22 161.983 19.842 162.685 19.554C163.387 19.266 164.251 19.122 165.277 19.122C165.763 19.122 166.258 19.176 166.762 19.284C167.284 19.374 167.761 19.59 168.193 19.932C168.625 20.274 168.985 20.769 169.273 21.417C169.579 22.047 169.759 22.902 169.813 23.982C169.831 24.324 169.84 24.63 169.84 24.9C169.858 25.152 169.867 25.404 169.867 25.656C169.885 25.908 169.894 26.169 169.894 26.439C169.894 26.709 169.894 27.024 169.894 27.384C169.894 28.122 169.885 28.752 169.867 29.274C169.867 29.778 169.867 30.237 169.867 30.651C169.867 30.993 169.849 31.308 169.813 31.596C169.795 31.884 169.741 32.127 169.651 32.325C169.561 32.523 169.426 32.685 169.246 32.811C169.084 32.919 168.841 32.973 168.517 32.973C168.211 32.973 167.977 32.919 167.815 32.811C167.653 32.685 167.518 32.478 167.41 32.19ZM175.991 36.888C175.991 37.23 175.982 37.554 175.964 37.86C175.946 38.184 175.883 38.472 175.775 38.724C175.685 38.976 175.541 39.174 175.343 39.318C175.163 39.48 174.902 39.561 174.56 39.561C174.164 39.561 173.831 39.417 173.561 39.129C173.309 38.859 173.165 38.373 173.129 37.671C173.111 37.221 173.084 36.672 173.048 36.024C173.012 35.376 172.976 34.692 172.94 33.972C172.922 33.252 172.895 32.532 172.859 31.812C172.841 31.092 172.832 30.426 172.832 29.814C172.832 27.708 172.976 25.971 173.264 24.603C173.57 23.235 174.02 22.146 174.614 21.336C175.208 20.526 175.937 19.959 176.801 19.635C177.683 19.311 178.7 19.149 179.852 19.149C180.77 19.149 181.634 19.293 182.444 19.581C183.254 19.851 183.956 20.283 184.55 20.877C185.162 21.453 185.648 22.209 186.008 23.145C186.368 24.063 186.548 25.17 186.548 26.466C186.548 27.546 186.359 28.5 185.981 29.328C185.621 30.156 185.117 30.858 184.469 31.434C183.821 31.992 183.056 32.424 182.174 32.73C181.31 33.018 180.383 33.162 179.393 33.162C178.547 33.162 177.782 32.991 177.098 32.649C176.432 32.289 175.955 31.902 175.667 31.488C175.757 32.496 175.829 33.432 175.883 34.296C175.955 35.16 175.991 36.024 175.991 36.888ZM179.717 21.849C179.087 21.849 178.538 21.957 178.07 22.173C177.62 22.389 177.251 22.686 176.963 23.064C176.675 23.442 176.459 23.892 176.315 24.414C176.189 24.936 176.126 25.503 176.126 26.115C176.126 26.709 176.18 27.276 176.288 27.816C176.414 28.338 176.612 28.797 176.882 29.193C177.152 29.589 177.512 29.904 177.962 30.138C178.412 30.372 178.961 30.489 179.609 30.489C180.113 30.489 180.599 30.426 181.067 30.3C181.535 30.156 181.949 29.922 182.309 29.598C182.687 29.274 182.984 28.842 183.2 28.302C183.434 27.762 183.551 27.087 183.551 26.277C183.551 25.449 183.434 24.756 183.2 24.198C182.984 23.622 182.687 23.163 182.309 22.821C181.949 22.461 181.535 22.209 181.067 22.065C180.617 21.921 180.167 21.849 179.717 21.849ZM200.018 33.108C199.73 33.108 199.496 33.063 199.316 32.973C199.154 32.865 199.028 32.73 198.938 32.568C198.848 32.406 198.785 32.217 198.749 32.001C198.713 31.767 198.686 31.524 198.668 31.272C198.218 31.83 197.633 32.298 196.913 32.676C196.211 33.054 195.311 33.243 194.213 33.243C193.511 33.243 192.791 33.144 192.053 32.946C191.333 32.73 190.676 32.37 190.082 31.866C189.488 31.344 189.002 30.651 188.624 29.787C188.246 28.923 188.057 27.834 188.057 26.52C188.057 25.494 188.183 24.531 188.435 23.631C188.687 22.731 189.065 21.948 189.569 21.282C190.091 20.598 190.739 20.058 191.513 19.662C192.287 19.266 193.196 19.068 194.24 19.068C195.158 19.068 195.977 19.239 196.697 19.581C197.417 19.905 198.065 20.445 198.641 21.201C198.641 20.985 198.65 20.769 198.668 20.553C198.686 20.319 198.731 20.112 198.803 19.932C198.893 19.734 199.028 19.581 199.208 19.473C199.388 19.347 199.631 19.284 199.937 19.284C200.207 19.284 200.459 19.392 200.693 19.608C200.927 19.824 201.062 20.292 201.098 21.012C201.152 21.966 201.188 22.821 201.206 23.577C201.242 24.333 201.26 25.116 201.26 25.926C201.26 26.916 201.251 27.825 201.233 28.653C201.215 29.481 201.17 30.363 201.098 31.299C201.062 31.713 201.008 32.046 200.936 32.298C200.882 32.532 200.81 32.712 200.72 32.838C200.63 32.946 200.522 33.018 200.396 33.054C200.27 33.09 200.144 33.108 200.018 33.108ZM198.56 26.25C198.56 25.314 198.416 24.549 198.128 23.955C197.858 23.361 197.507 22.902 197.075 22.578C196.661 22.236 196.211 22.002 195.725 21.876C195.239 21.75 194.789 21.687 194.375 21.687C193.727 21.687 193.169 21.804 192.701 22.038C192.251 22.272 191.882 22.596 191.594 23.01C191.306 23.406 191.09 23.883 190.946 24.441C190.82 24.981 190.757 25.575 190.757 26.223C190.757 27.807 191.099 28.977 191.783 29.733C192.485 30.489 193.43 30.867 194.618 30.867C195.32 30.867 195.914 30.75 196.4 30.516C196.904 30.264 197.309 29.931 197.615 29.517C197.939 29.103 198.173 28.617 198.317 28.059C198.479 27.483 198.56 26.88 198.56 26.25ZM210.77 21.498C210.104 21.498 209.501 21.606 208.961 21.822C208.439 22.038 207.845 22.362 207.179 22.794C207.179 23.172 207.179 23.73 207.179 24.468C207.179 25.188 207.17 25.98 207.152 26.844C207.134 27.69 207.116 28.527 207.098 29.355C207.08 30.183 207.044 30.876 206.99 31.434C206.954 31.794 206.909 32.082 206.855 32.298C206.819 32.496 206.756 32.649 206.666 32.757C206.594 32.865 206.486 32.937 206.342 32.973C206.216 32.991 206.045 33 205.829 33C205.613 33 205.433 32.991 205.289 32.973C205.163 32.937 205.055 32.874 204.965 32.784C204.875 32.676 204.803 32.523 204.749 32.325C204.695 32.127 204.65 31.857 204.614 31.515C204.578 31.191 204.542 30.759 204.506 30.219C204.488 29.679 204.47 29.094 204.452 28.464C204.434 27.816 204.416 27.168 204.398 26.52C204.398 25.854 204.398 25.242 204.398 24.684C204.398 23.766 204.407 23.019 204.425 22.443C204.461 21.867 204.515 21.354 204.587 20.904C204.695 20.148 204.839 19.671 205.019 19.473C205.199 19.275 205.442 19.176 205.748 19.176C206.198 19.176 206.531 19.302 206.747 19.554C206.981 19.806 207.125 20.22 207.179 20.796C207.845 20.22 208.556 19.761 209.312 19.419C210.086 19.077 210.878 18.906 211.688 18.906C212.462 18.906 213.164 19.086 213.794 19.446C214.442 19.806 214.973 20.391 215.387 21.201C215.639 21.687 215.828 22.227 215.954 22.821C216.08 23.397 216.17 24.009 216.224 24.657C216.242 24.945 216.26 25.233 216.278 25.521C216.296 25.791 216.305 26.088 216.305 26.412C216.323 26.718 216.332 27.069 216.332 27.465C216.332 27.861 216.332 28.329 216.332 28.869C216.332 29.445 216.323 29.985 216.305 30.489C216.287 30.993 216.233 31.434 216.143 31.812C216.071 32.172 215.936 32.46 215.738 32.676C215.54 32.874 215.27 32.973 214.928 32.973C214.1 32.973 213.668 32.577 213.632 31.785C213.632 31.731 213.632 31.506 213.632 31.11C213.632 30.696 213.623 30.219 213.605 29.679C213.605 29.139 213.596 28.59 213.578 28.032C213.578 27.474 213.569 27.015 213.551 26.655C213.533 26.367 213.506 26.061 213.47 25.737C213.452 25.395 213.416 25.053 213.362 24.711C213.326 24.369 213.272 24.045 213.2 23.739C213.128 23.415 213.038 23.127 212.93 22.875C212.678 22.281 212.363 21.903 211.985 21.741C211.607 21.579 211.202 21.498 210.77 21.498ZM222.614 37.941C222.38 38.355 222.155 38.661 221.939 38.859C221.741 39.057 221.507 39.156 221.237 39.156C220.985 39.156 220.733 39.075 220.481 38.913C220.229 38.751 220.103 38.526 220.103 38.238C220.103 37.968 220.193 37.581 220.373 37.077C220.571 36.573 220.805 36.024 221.075 35.43C221.363 34.836 221.66 34.224 221.966 33.594C222.272 32.964 222.551 32.388 222.803 31.866L222.992 31.461C222.452 30.399 221.894 29.265 221.318 28.059C220.76 26.853 220.247 25.71 219.779 24.63C219.311 23.55 218.924 22.614 218.618 21.822C218.33 21.012 218.186 20.481 218.186 20.229C218.186 19.995 218.276 19.797 218.456 19.635C218.654 19.455 218.897 19.365 219.185 19.365C219.437 19.365 219.68 19.419 219.914 19.527C220.148 19.617 220.364 19.833 220.562 20.175C220.85 20.715 221.147 21.336 221.453 22.038C221.777 22.722 222.092 23.442 222.398 24.198C222.722 24.954 223.046 25.719 223.37 26.493C223.712 27.267 224.054 28.014 224.396 28.734C224.792 27.996 225.215 27.222 225.665 26.412C226.115 25.602 226.547 24.819 226.961 24.063C227.393 23.307 227.789 22.614 228.149 21.984C228.509 21.336 228.815 20.796 229.067 20.364C229.319 19.95 229.571 19.653 229.823 19.473C230.075 19.293 230.336 19.203 230.606 19.203C230.786 19.203 230.966 19.284 231.146 19.446C231.326 19.59 231.416 19.788 231.416 20.04C231.416 20.418 231.245 21.03 230.903 21.876C230.579 22.704 230.156 23.667 229.634 24.765C229.112 25.863 228.518 27.042 227.852 28.302C227.204 29.544 226.556 30.768 225.908 31.974C225.26 33.162 224.639 34.278 224.045 35.322C223.469 36.366 222.992 37.239 222.614 37.941Z" fill="#202124"/>
</svg>
