<svg width="199" height="48" viewBox="0 0 199 48" fill="none" xmlns="http://www.w3.org/2000/svg">
<path d="M29.3659 29.6559C28.6348 30.3846 27.7713 30.967 26.8219 31.3719C25.1125 32.0936 23.2054 32.1989 21.4269 31.67C19.6484 31.141 18.109 30.0105 17.0719 28.4719L13.7559 30.7099C14.6207 31.9862 15.721 33.0858 16.9979 33.9499C18.2972 34.8286 19.757 35.4423 21.2939 35.7559C23.6719 36.24 26.1406 35.9961 28.3779 35.0559C29.8017 34.4516 31.0964 33.5799 32.1919 32.4879C32.7359 31.9459 33.2319 31.3459 33.6599 30.7099L30.3439 28.4719C30.0552 28.896 29.7278 29.2924 29.3659 29.6559V29.6559Z" fill="#202124"/>
<path d="M24 4C12.972 4 4 12.972 4 24C4 35.028 12.972 44 24 44C35.028 44 44 35.028 44 24C44 12.972 35.028 4 24 4ZM24 8C29.906 8 35.062 11.226 37.836 16H10.164C12.938 11.226 18.094 8 24 8ZM24 40C15.178 40 8 32.822 8 24C8 22.618 8.196 21.282 8.528 20H10V22C10 23.0609 10.4214 24.0783 11.1716 24.8284C11.9217 25.5786 12.9391 26 14 26H18C19.0609 26 20.0783 25.5786 20.8284 24.8284C21.5786 24.0783 22 23.0609 22 22H26C26 23.0609 26.4214 24.0783 27.1716 24.8284C27.9217 25.5786 28.9391 26 30 26H34C35.0609 26 36.0783 25.5786 36.8284 24.8284C37.5786 24.0783 38 23.0609 38 22V20H39.472C39.804 21.282 40 22.618 40 24C40 32.822 32.822 40 24 40Z" fill="#202124"/>
<path d="M70.53 29.975C70.53 28.715 70.782 26.825 71.286 24.305H67.29L65.805 32H60.162L63.591 14.18H69.288L67.722 22.145H71.718L73.203 14.18H78.9C78.648 15.512 78.36 16.925 78.036 18.419L77.118 22.82C76.434 26.24 76.092 28.697 76.092 30.191C76.092 30.803 76.191 31.28 76.389 31.622C75.489 32.234 74.508 32.54 73.446 32.54C72.402 32.54 71.655 32.288 71.205 31.784C70.755 31.28 70.53 30.677 70.53 29.975ZM80.7098 31.19C80.2958 30.722 79.9898 30.119 79.7918 29.381C79.6118 28.643 79.5218 27.671 79.5218 26.465C79.5218 25.259 79.7288 24.107 80.1428 23.009C80.5568 21.911 81.1418 20.966 81.8978 20.174C83.4458 18.518 85.4978 17.69 88.0538 17.69C88.9718 17.69 89.7638 17.843 90.4298 18.149L95.0468 17.69L93.0488 28.22C92.9948 28.436 92.9678 28.742 92.9678 29.138C92.9678 29.534 93.0848 29.858 93.3188 30.11C93.5708 30.362 93.8768 30.506 94.2368 30.542C94.0568 31.154 93.6338 31.64 92.9678 32C92.3198 32.36 91.6268 32.54 90.8888 32.54C90.1508 32.54 89.5298 32.396 89.0258 32.108C88.5398 31.838 88.2248 31.469 88.0808 31.001C87.7928 31.451 87.3428 31.82 86.7308 32.108C86.1188 32.396 85.3988 32.54 84.5708 32.54C83.7608 32.54 83.0228 32.432 82.3568 32.216C81.6908 32 81.1418 31.658 80.7098 31.19ZM86.4068 20.228C86.2088 20.552 86.0198 20.993 85.8398 21.551C85.6598 22.091 85.4168 23.099 85.1108 24.575C84.8228 26.033 84.6788 27.284 84.6788 28.328C84.6788 29.372 84.7598 30.047 84.9218 30.353C85.0838 30.659 85.3088 30.812 85.5968 30.812C86.1728 30.812 86.6678 30.542 87.0818 30.002C87.5138 29.444 87.8108 28.679 87.9728 27.707L89.4038 19.796C89.0258 19.472 88.6118 19.31 88.1618 19.31C87.7298 19.31 87.3788 19.382 87.1088 19.526C86.8568 19.67 86.6228 19.904 86.4068 20.228ZM109.085 30.164C108.329 30.92 107.429 31.505 106.385 31.919C105.359 32.333 104.333 32.54 103.307 32.54C102.281 32.54 101.588 32.45 101.228 32.27L100.391 36.86L94.9099 37.4L98.6359 18.23L103.037 17.771L102.686 19.634C103.442 18.356 104.603 17.717 106.169 17.717C107.933 17.717 109.283 18.284 110.219 19.418C111.047 20.444 111.461 21.74 111.461 23.306C111.461 24.872 111.254 26.213 110.84 27.329C110.426 28.445 109.841 29.39 109.085 30.164ZM101.552 30.488C101.93 30.812 102.353 30.974 102.821 30.974C103.289 30.974 103.658 30.884 103.928 30.704C104.198 30.524 104.432 30.254 104.63 29.894C105.17 28.922 105.656 26.96 106.088 24.008C106.214 23.144 106.277 22.289 106.277 21.443C106.277 20.597 106.178 20.039 105.98 19.769C105.8 19.499 105.53 19.364 105.17 19.364C104.072 19.364 103.343 20.435 102.983 22.577L101.552 30.488ZM125.67 30.164C124.914 30.92 124.014 31.505 122.97 31.919C121.944 32.333 120.918 32.54 119.892 32.54C118.866 32.54 118.173 32.45 117.813 32.27L116.976 36.86L111.495 37.4L115.221 18.23L119.622 17.771L119.271 19.634C120.027 18.356 121.188 17.717 122.754 17.717C124.518 17.717 125.868 18.284 126.804 19.418C127.632 20.444 128.046 21.74 128.046 23.306C128.046 24.872 127.839 26.213 127.425 27.329C127.011 28.445 126.426 29.39 125.67 30.164ZM118.137 30.488C118.515 30.812 118.938 30.974 119.406 30.974C119.874 30.974 120.243 30.884 120.513 30.704C120.783 30.524 121.017 30.254 121.215 29.894C121.755 28.922 122.241 26.96 122.673 24.008C122.799 23.144 122.862 22.289 122.862 21.443C122.862 20.597 122.763 20.039 122.565 19.769C122.385 19.499 122.115 19.364 121.755 19.364C120.657 19.364 119.928 20.435 119.568 22.577L118.137 30.488ZM138.259 28.949C137.323 29.921 136 30.407 134.29 30.407C132.148 30.407 130.852 29.624 130.402 28.058C130.258 27.59 130.186 27.095 130.186 26.573C130.186 26.051 130.24 25.52 130.348 24.98L131.617 18.23L137.098 17.69L135.613 25.547C135.577 25.781 135.532 26.024 135.478 26.276C135.424 26.528 135.397 26.789 135.397 27.059C135.397 27.311 135.442 27.527 135.532 27.707C135.622 27.869 135.73 28.004 135.856 28.112C136.072 28.256 136.369 28.328 136.747 28.328C137.143 28.328 137.503 28.094 137.827 27.626C138.169 27.158 138.421 26.519 138.583 25.709L140.068 18.23L145.387 17.69L143.362 28.301C142.696 31.757 141.679 34.169 140.311 35.537C139.609 36.239 138.799 36.725 137.881 36.995C136.981 37.283 135.946 37.427 134.776 37.427C132.886 37.427 131.401 37.13 130.321 36.536C129.241 35.942 128.701 35.15 128.701 34.16C128.701 33.422 128.98 32.837 129.538 32.405C130.096 31.991 130.807 31.784 131.671 31.784C132.427 31.784 133.093 31.946 133.669 32.27C134.011 32.468 134.263 32.693 134.425 32.945C134.011 33.305 133.804 33.782 133.804 34.376C133.804 35.168 134.164 35.564 134.884 35.564C136.072 35.564 137.008 34.196 137.692 31.46C137.89 30.65 138.079 29.813 138.259 28.949ZM151.63 32L155.059 14.18H160.999L157.516 32H151.63ZM173.025 32.54C170.847 32.54 169.758 31.694 169.758 30.002C169.776 29.534 169.857 28.904 170.001 28.112L170.487 25.628C170.973 23.288 171.216 21.857 171.216 21.335C171.216 20.291 170.91 19.769 170.298 19.769C169.272 19.769 168.489 21.11 167.949 23.792L166.356 32L160.929 32.54L163.737 18.203L168.165 17.69L167.733 20.336C168.579 18.572 170.298 17.69 172.89 17.69C174.15 17.69 175.041 17.96 175.563 18.5C176.103 19.022 176.373 19.877 176.373 21.065C176.373 22.181 176.085 24.044 175.509 26.654C175.239 27.824 175.104 28.634 175.104 29.084C175.104 29.516 175.221 29.858 175.455 30.11C175.707 30.362 176.013 30.506 176.373 30.542C176.193 31.154 175.788 31.64 175.158 32C174.546 32.36 173.835 32.54 173.025 32.54ZM191.788 20.768C191.788 21.524 191.473 22.136 190.843 22.604C190.213 23.072 189.385 23.306 188.359 23.306C187.927 23.306 187.585 23.243 187.333 23.117C187.531 22.649 187.657 22.127 187.711 21.551C187.783 20.957 187.819 20.579 187.819 20.417C187.819 19.661 187.558 19.283 187.036 19.283C186.676 19.283 186.289 19.508 185.875 19.958C185.479 20.408 185.11 20.984 184.768 21.686C184.012 23.306 183.634 24.935 183.634 26.573C183.634 27.473 183.805 28.13 184.147 28.544C184.489 28.94 185.038 29.138 185.794 29.138C186.838 29.138 187.774 28.706 188.602 27.842C188.836 27.572 189.016 27.284 189.142 26.978C189.826 27.338 190.168 28.013 190.168 29.003C190.168 30.011 189.61 30.848 188.494 31.514C187.342 32.198 185.848 32.54 184.012 32.54C180.358 32.54 178.531 30.605 178.531 26.735C178.531 23.909 179.332 21.686 180.934 20.066C182.482 18.482 184.678 17.69 187.522 17.69C190.366 17.69 191.788 18.716 191.788 20.768ZM191.696 30.407C191.696 29.723 191.957 29.192 192.479 28.814C193.019 28.436 193.667 28.247 194.423 28.247C195.179 28.247 195.782 28.436 196.232 28.814C196.7 29.192 196.934 29.723 196.934 30.407C196.934 31.091 196.673 31.622 196.151 32C195.647 32.36 195.017 32.54 194.261 32.54C193.505 32.54 192.884 32.36 192.398 32C191.93 31.622 191.696 31.091 191.696 30.407Z" fill="#202124"/>
</svg>
