<svg width="167" height="48" viewBox="0 0 167 48" fill="none" xmlns="http://www.w3.org/2000/svg">
<path d="M20 6H8C7.46957 6 6.96086 6.21071 6.58579 6.58579C6.21071 6.96086 6 7.46957 6 8V20C6 20.5304 6.21071 21.0391 6.58579 21.4142C6.96086 21.7893 7.46957 22 8 22H20C20.5304 22 21.0391 21.7893 21.4142 21.4142C21.7893 21.0391 22 20.5304 22 20V8C22 7.46957 21.7893 6.96086 21.4142 6.58579C21.0391 6.21071 20.5304 6 20 6V6ZM18 18H10V10H18V18ZM40 26H28C27.4696 26 26.9609 26.2107 26.5858 26.5858C26.2107 26.9609 26 27.4696 26 28V40C26 40.5304 26.2107 41.0391 26.5858 41.4142C26.9609 41.7893 27.4696 42 28 42H40C40.5304 42 41.0391 41.7893 41.4142 41.4142C41.7893 41.0391 42 40.5304 42 40V28C42 27.4696 41.7893 26.9609 41.4142 26.5858C41.0391 26.2107 40.5304 26 40 26ZM38 38H30V30H38V38ZM34 6C29.588 6 26 9.588 26 14C26 18.412 29.588 22 34 22C38.412 22 42 18.412 42 14C42 9.588 38.412 6 34 6ZM34 18C31.794 18 30 16.206 30 14C30 11.794 31.794 10 34 10C36.206 10 38 11.794 38 14C38 16.206 36.206 18 34 18ZM14 26C9.588 26 6 29.588 6 34C6 38.412 9.588 42 14 42C18.412 42 22 38.412 22 34C22 29.588 18.412 26 14 26ZM14 38C11.794 38 10 36.206 10 34C10 31.794 11.794 30 14 30C16.206 30 18 31.794 18 34C18 36.206 16.206 38 14 38Z" fill="#202124"/>
<path d="M77.9667 16.9L72.1333 32.1667H70.6L64.8 17.2H64.7333L64.4 30.3333H66V32H60.6667V30.3333H62.5667L63 15.6667H61.0333V14H65.7L71.4667 28.9H71.5333L77.2 14H81.9V15.6667H80L80.3667 30.3333H82.3333V32H76.6667V30.3333H78.3667L78.0333 16.9H77.9667ZM84.9922 19.9667C86.5255 19.1 88.0922 18.6667 89.6922 18.6667C91.07 18.6667 92.1255 18.9889 92.8589 19.6333C93.6144 20.2556 93.9922 21.2556 93.9922 22.6333V30.3333H95.6589V32H92.1922L92.0922 30.5L92.0255 30.4667C90.9589 31.7111 89.6477 32.3333 88.0922 32.3333C86.9366 32.3333 86.0144 32 85.3255 31.3333C84.6589 30.6444 84.3255 29.7778 84.3255 28.7333C84.3255 27.3333 84.9255 26.2889 86.1255 25.6C87.3477 24.9111 89.1144 24.5667 91.4255 24.5667H91.9922V22.6C91.9922 21.7778 91.7922 21.2 91.3922 20.8667C91.0144 20.5111 90.37 20.3333 89.4589 20.3333C88.37 20.3333 87.4589 20.5111 86.7255 20.8667V22.6667H84.9922V19.9667ZM91.1922 26C89.6589 26 88.4811 26.2 87.6589 26.6C86.8366 26.9778 86.4255 27.6556 86.4255 28.6333C86.4255 29.3444 86.6255 29.8667 87.0255 30.2C87.4255 30.5111 87.9366 30.6667 88.5589 30.6667C89.8922 30.6667 91.0366 30.1222 91.9922 29.0333V26H91.1922ZM101.425 32.3333C100.469 32.3333 99.7134 32.0889 99.1579 31.6C98.6023 31.0889 98.3245 30.3444 98.3245 29.3667V20.6667H96.6579V19H98.3245V16L100.325 15.6333V19H103.325V20.6667H100.325V29.0333C100.325 29.6778 100.447 30.1111 100.691 30.3333C100.958 30.5556 101.302 30.6667 101.725 30.6667C102.258 30.6667 102.791 30.5333 103.325 30.2667V31.9C102.725 32.1889 102.091 32.3333 101.425 32.3333ZM106.314 13.6667H104.647V12H108.314V20.5333H108.347C109.547 19.2889 110.914 18.6667 112.447 18.6667C113.558 18.6667 114.369 18.9889 114.88 19.6333C115.392 20.2556 115.647 21.1444 115.647 22.3V30.3333H117.314V32H112.314V30.3333H113.647V22.5667C113.647 21.6778 113.492 21.0889 113.18 20.8C112.869 20.4889 112.436 20.3333 111.88 20.3333C110.592 20.3333 109.403 20.9667 108.314 22.2333V30.3333H109.647V32H104.647V30.3333H106.314V13.6667ZM128.325 30.3333V32H122.991V30.3333H124.658L130.025 13.8333H131.958L137.425 30.3333H138.991V32H133.658V30.3333H135.325L133.691 25.3333H128.125L126.558 30.3333H128.325ZM130.825 16.6667L128.625 23.6667H133.158L130.891 16.6667H130.825ZM143.396 19L143.496 20.0667H143.563C144.563 19.1333 145.685 18.6667 146.929 18.6667C148.352 18.6667 149.496 19.2556 150.363 20.4333C151.229 21.5889 151.663 23.1222 151.663 25.0333C151.663 27.2111 151.129 28.9778 150.063 30.3333C149.018 31.6667 147.685 32.3333 146.063 32.3333C145.218 32.3333 144.385 32.1333 143.563 31.7333L143.496 31.7667V36.3333H145.496V38H139.829V36.3333H141.496V20.6667H139.829V19H143.396ZM143.496 30.1667C144.163 30.5 144.941 30.6667 145.829 30.6667C147.007 30.6667 147.918 30.2333 148.563 29.3667C149.229 28.5 149.563 27.1667 149.563 25.3667C149.563 23.6333 149.274 22.3667 148.696 21.5667C148.118 20.7444 147.341 20.3333 146.363 20.3333C145.296 20.3333 144.341 20.8111 143.496 21.7667V30.1667ZM157.397 19L157.497 20.0667H157.564C158.564 19.1333 159.686 18.6667 160.93 18.6667C162.353 18.6667 163.497 19.2556 164.364 20.4333C165.23 21.5889 165.664 23.1222 165.664 25.0333C165.664 27.2111 165.13 28.9778 164.064 30.3333C163.019 31.6667 161.686 32.3333 160.064 32.3333C159.219 32.3333 158.386 32.1333 157.564 31.7333L157.497 31.7667V36.3333H159.497V38H153.83V36.3333H155.497V20.6667H153.83V19H157.397ZM157.497 30.1667C158.164 30.5 158.942 30.6667 159.83 30.6667C161.008 30.6667 161.919 30.2333 162.564 29.3667C163.23 28.5 163.564 27.1667 163.564 25.3667C163.564 23.6333 163.275 22.3667 162.697 21.5667C162.119 20.7444 161.342 20.3333 160.364 20.3333C159.297 20.3333 158.342 20.8111 157.497 21.7667V30.1667Z" fill="#202124"/>
</svg>
