<svg width="290" height="290" viewBox="0 0 290 290" fill="none" xmlns="http://www.w3.org/2000/svg">
<rect width="290" height="290" fill="white"/>
<path fill-rule="evenodd" clip-rule="evenodd" d="M156.599 201.107C166.33 194.554 184.343 193.413 181.039 179.114C177.81 164.657 165.676 164.127 143.282 151.077C121.51 136.736 127.002 126.719 94.8821 125.372C64.2443 125.385 73.5707 169.531 50.9988 162.714C28.4269 155.897 53.8094 212.281 57.824 216.455C64.8849 223.795 83.4791 232.554 92.5487 231.312C99.4363 230.394 121.595 225.295 132.444 220.003C143.041 215.064 144.187 209.903 156.599 201.107Z" fill="#FAD02C"/>
<path d="M243.277 59.1199L243.341 59.1216C243.882 59.1536 244.294 59.6178 244.262 60.1585L244.154 62.0291L244.085 63.2806C243.367 76.5676 241.662 87.8614 242.062 97.1592L242.124 98.5053C242.605 108.524 245.161 122.689 247.745 144.091C247.971 144.25 248.13 144.503 248.159 144.8C248.211 145.339 247.816 145.819 247.277 145.871C234.645 147.095 222.892 147.91 212.017 148.315L210.531 148.368L208.832 148.424C197.838 148.765 182.361 148.93 162.398 148.921C161.856 148.92 161.417 148.481 161.417 147.939C161.417 147.681 154.444 61.9424 154.444 61.9424C154.444 61.9424 243.009 59.1214 243.277 59.1199Z" fill="white"/>
<path d="M226.185 220.672L226.801 220.736C235.566 221.652 241.32 222.975 243.974 224.638L244.14 224.745C246.178 226.1 245.921 227.511 242.991 229.762C239.788 232.224 231.915 234.544 220.135 235.96C205.387 237.733 185.56 238.019 160.661 236.477L158.05 236.315C143.675 235.443 132.646 235.208 112.234 235.097L106.599 235.065C94.4468 234.98 89.2815 234.812 84.2951 234.278L83.821 234.225C77.5698 233.51 74.115 232.204 72.9575 230.156L72.9152 230.079C72.8932 230.038 72.893 230.038 73.061 229.868C73.3972 229.527 74.0868 229.13 75.1126 228.717L75.3783 228.612C77.6016 227.757 81.1157 226.88 85.8994 225.994L86.8054 225.829C96.3556 224.114 110.598 222.37 129.522 220.6L132.566 220.318L135.164 220.224C177.748 218.698 208.096 218.848 226.185 220.672Z" fill="white"/>
<path fill-rule="evenodd" clip-rule="evenodd" d="M206.443 59.3244C206.81 58.9257 207.43 58.8998 207.829 59.2665C208.227 59.6331 208.253 60.2535 207.886 60.6521C207.886 60.6521 163.277 111.362 162.871 109.951C162.648 109.175 181.408 86.6347 184.359 83.5963L185.177 82.7688C186.562 81.332 193.413 73.4912 206.443 59.3244Z" fill="#E7EAEE"/>
<path fill-rule="evenodd" clip-rule="evenodd" d="M183.992 70.4491C184.436 70.1391 185.048 70.2477 185.358 70.6918C185.668 71.1359 185.559 71.7473 185.115 72.0573C183.636 73.09 160.565 96.3635 160.075 96.1782C159.585 95.9928 161.95 93.2276 161.95 93.2276C163.461 91.6461 176.964 77.2962 176.964 77.2962C178.099 76.0856 179.147 74.9942 180.15 73.9835C181.143 72.9829 182.423 71.5448 183.992 70.4491Z" fill="#E7EAEE"/>
<path fill-rule="evenodd" clip-rule="evenodd" d="M206.571 220.672L207.187 220.736C215.952 221.652 221.706 222.975 224.361 224.638L224.526 224.745C226.564 226.1 226.307 227.511 223.378 229.762C220.174 232.224 185.56 234.488 160.661 232.947L158.05 232.785C143.675 231.913 132.646 229.324 112.234 229.213L106.599 229.181C94.4468 229.096 89.2815 234.812 84.2951 234.278L83.821 234.225C77.5698 233.51 74.115 232.204 72.9575 230.156L72.9152 230.079C72.8932 230.038 72.893 230.038 73.061 229.868C73.3972 229.527 74.0868 229.13 75.1126 228.717L75.3783 228.612C77.6016 227.757 81.1157 226.88 85.8994 225.994L86.8054 225.829C96.3556 224.114 110.598 222.37 129.522 220.6L132.566 220.318L135.164 220.224C177.748 218.698 188.483 218.848 206.571 220.672Z" fill="#E7EAEE"/>
<path d="M90.3716 147.351C90.6769 148.152 101.097 149.407 106.808 152.783C108.999 154.077 110.657 159.679 110.549 159.785C107.96 162.339 106.553 163.64 105.159 164.425C100.26 167.181 96.4839 166.465 92.8279 165.888C88.4331 165.195 85.8218 160.37 87.5352 156.364C87.8037 155.737 88.4803 154.82 89.6002 153.529L89.7493 153.36C89.7447 153.314 89.7453 153.266 89.751 153.219C89.8022 152.786 89.8086 152.343 89.7699 151.888L89.6832 151.072C89.5809 150.16 89.383 148.612 89.0888 147.841C88.9536 147.486 89.1312 147.09 89.4855 146.955C89.8397 146.819 90.2364 146.997 90.3716 147.351Z" fill="white"/>
<path d="M114.434 157.574C114.433 157.41 114.474 157.242 114.562 157.089C114.714 156.821 114.973 156.653 115.254 156.606C115.32 156.547 115.365 156.526 115.39 156.55L115.433 156.593C115.591 156.596 115.752 156.638 115.899 156.722L118.784 158.36C124.763 161.778 131.19 166.863 131.81 170.723C132.513 175.097 127.933 197.861 127.403 197.746C126.874 197.631 116.953 220.178 116.947 220.239C116.927 220.444 108.107 220.771 98.8286 221.764C95.586 222.111 104.007 210.798 107.175 202.8C112.609 189.084 114.434 157.574 114.434 157.574Z" fill="white"/>
<path d="M185.581 168.761C182.08 167.997 178.013 168.381 173.365 169.931C169.561 171.2 167.478 172.976 166.959 175.246L166.93 175.381L167.079 175.443C170.185 176.695 173.083 177.013 175.795 176.412L175.993 176.366C177.871 175.918 179.396 174.865 181.207 172.994L181.457 172.732C181.883 172.278 182.888 171.177 183.012 171.045C183.655 170.356 184.147 169.88 184.644 169.492L184.752 169.41C185.004 169.22 185.31 169.037 185.671 168.858L185.78 168.805L185.581 168.761Z" fill="white"/>
<path d="M151.124 163.368C148.633 162.595 145.678 162.505 142.255 163.112L142.094 163.141L142.129 163.212C143.644 166.25 145.017 168.12 146.164 168.798L146.236 168.838C147.389 169.476 150.138 169.521 154.353 168.892L154.977 168.796L154.962 168.744C154.946 168.684 154.936 168.621 154.932 168.557L154.929 168.493C154.929 165.813 153.712 164.172 151.124 163.368Z" fill="white"/>
<path d="M122.697 149.155C122.627 149.713 122.864 151.764 122.075 152.711C121.762 153.086 121.016 153.355 120.528 153.118C120.313 153.014 120.985 152.078 121.393 151.02C121.55 150.611 121.273 150.117 121.393 149.727C121.497 149.385 122.002 149.139 122.075 148.883C122.191 148.474 122.743 148.786 122.697 149.155Z" fill="white"/>
<path d="M124.062 146.759C123.992 147.317 125.648 149.916 124.821 150.75C123.415 152.166 122.063 149.682 122.471 148.624C122.629 148.216 122.637 147.722 122.757 147.331C122.861 146.99 124.108 146.39 124.062 146.759Z" fill="white"/>
<path d="M139.347 187.806C139.042 188.952 138.783 195.673 140.241 199.468C140.775 200.857 141.559 201.874 142.619 202.27C143.51 202.588 144.437 202.785 145.383 202.916C147.422 203.197 163.005 204.523 170.001 203.609C176.997 202.694 176.601 202.609 179.798 202.043C181.346 201.768 183.115 201.476 184.696 200.856C185.862 200.4 186.925 199.768 187.758 198.868C188.504 198.064 188.965 196.696 189.102 195.166C189.277 193.223 188.979 190.653 188.687 189.359C188.687 189.287 188.671 189.26 188.687 189.237C188.759 189.131 187.817 188.606 184.696 188.477C179.346 188.257 171.003 188.675 162.919 188.591C151.888 188.477 141.345 187.466 139.597 187.65C139.437 187.667 139.353 187.784 139.347 187.806Z" fill="white"/>
<path d="M89.2386 151.927C89.7802 151.924 90.2223 152.36 90.2265 152.901C90.2269 152.958 90.2224 153.013 90.2136 153.068L90.2977 153.013C90.7683 152.723 91.3508 152.575 91.2262 153.287C91.0526 154.28 88.5679 155.434 88.5679 157.343C88.5679 160.178 89.661 162.892 93.593 164.026C104.605 167.202 110.044 161.572 112.08 159.144C112.079 158.979 112.121 158.811 112.208 158.658C112.36 158.39 112.619 158.222 112.901 158.175C112.966 158.116 113.011 158.095 113.037 158.119L113.079 158.162C113.238 158.165 113.398 158.207 113.546 158.291L116.43 159.929C122.409 163.348 128.837 168.432 129.457 172.292C130.159 176.666 125.579 199.43 125.05 199.315C124.521 199.2 114.599 221.747 114.593 221.808C114.567 222.085 98.514 222.584 86.9352 224.642C79.3423 225.991 74.4011 228.522 74.2413 228.665C73.8377 229.026 73.3689 229.652 73.0076 229.248C70.5823 226.539 69.9358 218.926 70.8726 207.72L70.382 207.67C60.3463 206.656 55.3959 203.834 55.7329 197.478C56.5596 181.887 60.949 169.668 66.0552 162.103C70.589 155.385 77.8313 152.009 89.2386 151.927Z" fill="white"/>
<path fill-rule="evenodd" clip-rule="evenodd" d="M112.08 159.144C112.079 158.979 112.121 158.811 112.208 158.658C112.36 158.39 112.619 158.222 112.901 158.175C112.966 158.116 113.011 158.095 113.036 158.119L113.079 158.162C113.238 158.165 113.398 158.207 113.546 158.291L116.43 159.929C122.409 163.348 128.837 168.432 129.457 172.292C130.159 176.667 125.579 199.43 125.05 199.315C124.521 199.201 114.599 221.747 114.593 221.808C114.574 222.013 105.754 222.34 96.4751 223.333C93.2325 223.68 101.654 212.367 104.822 204.369C110.255 190.653 112.08 159.144 112.08 159.144Z" fill="#E7EAEE"/>
<path d="M112.595 158.824C112.614 159.365 112.156 159.818 111.615 159.804C108.909 159.736 108.479 155.084 108.738 155.065C109.098 155.039 109.711 157.249 110.919 158.054C111.84 158.667 112.543 157.332 112.595 158.824Z" fill="white"/>
<path d="M88.0741 146.396C88.4483 145.948 89.1474 146.345 89.3919 146.828C89.6363 147.312 89.4427 147.902 88.9594 148.146C86.4932 149.394 83.2094 148.931 81.1863 147.199C77.6719 144.191 77.5281 136.384 77.5281 134.054C77.5281 133.743 81.5381 134.11 83.2014 136.286C86.1513 140.145 87.5919 146.973 88.0741 146.396Z" fill="white"/>
<path d="M87.8116 125.195L87.8492 124.988C87.8806 124.805 87.8801 124.606 87.7861 123.621L87.4725 120.538C87.4132 119.95 87.3657 119.443 87.3245 118.949L87.292 118.546C87.0094 114.916 87.1455 112.852 88.126 111.893C90.8936 109.185 92.4227 109.243 95.3051 110.177L95.9092 110.374C97.1902 110.779 97.8318 110.465 98.7078 110.26L98.9612 110.202C100.992 109.757 103.109 109.675 105.543 109.887C106.966 110.01 107.847 110.127 110.106 110.516L112.773 110.983C114.443 111.277 115.567 111.46 116.758 111.622L117.02 111.656C118.928 111.887 120.481 111.748 122.355 111.325C122.394 111.317 123.403 111.079 123.799 110.994L124.038 110.946C124.409 110.877 124.723 110.84 125.016 110.84L125.062 110.815C127.922 109.331 130.644 104.695 130.42 100.977C130.141 96.364 125.759 93.4361 116.349 93.378L115.891 93.3762C114.337 93.3594 113.201 93.1022 109.938 92.1024L108.328 91.6051C105.534 90.7491 103.85 90.3598 102.047 90.2388C101.736 90.2179 101.432 90.2074 101.133 90.2074C88.6319 90.2074 76.3171 100.859 74.6223 110.815C74.3145 112.622 75.7085 120.597 76.2125 124.561C76.2125 124.561 81.0689 124.615 83.4331 124.956C83.6586 124.988 85.5752 129.166 86.7367 129.166C87.7861 129.166 87.8116 125.195 87.8116 125.195Z" fill="white"/>
<path d="M95.0013 111.749C96.7438 112.322 97.7008 112.485 99.0187 112.2L99.5025 112.091C102.627 111.408 105.02 111.614 111.704 112.786L113.307 113.067C114.546 113.28 115.495 113.429 116.493 113.565C118.693 113.865 120.47 113.739 122.528 113.296L124.629 112.826C124.991 112.75 124.947 112.779 125.077 112.8L125.138 112.807C125.413 112.833 126.347 112.973 126.566 113.607C127.917 117.509 128.309 126.823 126.875 134.491C124.927 144.902 119.339 152.039 111.353 154.207C99.1832 157.51 90.034 151.234 83.7002 135.022L83.5053 134.524L82.9804 134.418L82.6058 134.34C76.577 133.048 74.5409 130.731 76.5789 126.959C77.5996 125.07 78.9978 124.485 80.1632 124.88C81.5811 125.361 83.3675 127.215 85.4088 130.452L85.4316 130.486C86.3268 131.781 87.5694 131.285 88.2006 129.91C88.5945 129.052 88.9687 127.617 89.3459 125.564L89.4217 125.145C89.4857 124.752 89.4558 124.438 89.1272 121.266L89.0108 120.13C88.9692 119.711 88.9338 119.332 88.9024 118.967L88.887 118.786C88.7581 117.241 88.7108 116.01 88.7593 115.042C88.8085 114.059 88.9664 113.431 89.1057 113.294L89.3387 113.07C91.3633 111.153 92.5111 110.962 94.5824 111.613L95.0013 111.749Z" fill="white"/>
<path fill-rule="evenodd" clip-rule="evenodd" d="M126.874 134.491C124.927 144.902 119.339 152.039 111.353 154.207C109.029 154.838 115.76 152.343 119.306 147.859C124.168 141.709 126.903 132.603 127.353 129.845C128.717 121.502 128.309 126.823 126.874 134.491Z" fill="#E7EAEE"/>
<path fill-rule="evenodd" clip-rule="evenodd" d="M88.2004 129.91C88.5943 129.052 88.9685 127.617 89.3458 125.564L89.4216 125.145C89.4856 124.752 89.4556 124.438 89.127 121.266L89.0106 120.13C88.969 119.711 88.9337 119.332 88.9022 118.967L88.8868 118.786C88.7579 117.241 88.7106 116.01 88.7591 115.042C88.8083 114.059 88.9662 113.431 89.1055 113.294L89.3386 113.07C91.3631 111.153 92.5109 110.962 94.5822 111.613L95.0011 111.749C96.7436 112.322 97.7006 112.485 99.0185 112.2L99.5023 112.091C102.627 111.408 105.019 111.614 111.704 112.786L113.307 113.067C114.546 113.28 115.494 113.429 116.493 113.565C118.693 113.865 120.47 113.739 122.528 113.296L124.629 112.826C124.991 112.75 124.947 112.779 125.077 112.8L125.138 112.807C125.413 112.833 126.346 112.973 126.566 113.607C126.566 113.607 125.715 114.296 125.077 114.343C119.52 114.752 115.48 115.721 111.185 116.133C104.413 116.781 98.3563 117.004 95.0011 118.786C93.3799 119.647 91.6586 128.525 89.4977 131.535C88.2736 133.24 88.2004 129.91 88.2004 129.91Z" fill="#E7EAEE"/>
<path fill-rule="evenodd" clip-rule="evenodd" d="M139.457 199.468C139.991 200.857 140.774 201.874 141.834 202.27C142.726 202.588 143.652 202.785 144.598 202.916C146.638 203.197 162.221 204.523 169.217 203.609C176.212 202.694 175.816 202.609 179.014 202.043C180.561 201.768 182.33 201.476 183.912 200.856C185.077 200.4 186.14 199.768 186.973 198.868C187.719 198.064 188.18 196.696 188.317 195.166C188.492 193.223 188.194 190.653 187.902 189.359C187.838 189.012 186.673 189.264 186.737 189.611C186.912 190.813 186.966 193.2 186.739 194.966C186.598 196.06 186.384 197.077 185.847 197.655C185.174 198.378 184.307 198.872 183.367 199.241C181.878 199.828 180.211 200.103 178.755 200.366C175.6 200.942 172.653 201.689 159.586 202.043C157.467 202.1 146.854 201.552 144.799 201.257C143.953 201.137 143.124 200.962 142.327 200.675C141.398 200.36 140.909 199.207 140.475 197.914C139.95 196.35 138.733 190.767 139.457 189.566C139.727 189.119 141.676 189.217 142.895 189.346C146.802 189.76 153.97 189.926 160.925 190.003C168.583 190.088 186.842 190.092 186.842 189.741C186.842 189.425 187.568 189.346 187.902 189.359C188.011 189.364 187.295 188.477 183.912 188.477C178.521 188.477 170.218 188.675 162.134 188.591C151.104 188.477 140.561 187.466 138.813 187.65C138.776 187.654 138.741 187.657 138.708 187.659C137.429 187.734 137.998 195.673 139.457 199.468Z" fill="#00160A"/>
<path fill-rule="evenodd" clip-rule="evenodd" d="M142.046 191.822C142.1 191.423 142.561 190.555 142.75 191.011C143.087 191.822 142.744 197.236 145.916 197.799C146.449 197.893 147.849 198.095 147.849 198.542C147.849 198.989 147.633 199.663 146.471 199.348C144.421 198.791 143.248 197.643 142.53 195.822C142.019 194.526 141.883 193.007 142.046 191.822Z" fill="#00160A"/>
<path fill-rule="evenodd" clip-rule="evenodd" d="M71.3234 178.491L71.3243 178.5C71.3247 178.575 71.4168 178.677 71.4331 178.896C71.5025 179.831 71.1062 182.029 71.0361 182.724C70.8524 184.35 70.5314 186.384 70.4737 188.327C70.4366 189.583 70.5029 190.8 70.8598 191.832C71.6021 194.053 73.315 195.42 75.3848 196.293C77.2362 197.076 79.379 197.419 81.4344 197.666C82.9336 197.845 84.3803 197.994 85.6632 198.066C85.8824 198.066 86.0604 198.245 86.0604 198.465C86.0604 198.684 85.8824 198.86 85.6632 198.86C84.3522 198.935 82.8635 199.026 81.3231 198.94C79.1197 198.817 76.8353 198.376 74.8561 197.557C72.4117 196.544 70.4384 194.881 69.5668 192.261C69.1872 191.078 69.0978 189.689 69.1985 188.262C69.338 186.285 69.8188 184.237 70.1034 182.59C70.2312 181.9 70.4619 179.663 70.8184 178.794C70.9929 178.367 71.294 178.315 71.3039 178.34C71.3453 178.38 71.3519 178.444 71.3234 178.491Z" fill="#00160A"/>
<path fill-rule="evenodd" clip-rule="evenodd" d="M91.0923 194.497L89.9033 194.687C89.5291 194.766 89.1031 194.917 88.7466 195.15C88.4828 195.322 88.2661 195.546 88.1193 195.807C88.0507 195.932 88.0114 196.058 87.9838 196.184C87.932 196.421 87.9464 196.66 87.9048 196.914C87.8713 197.115 87.8596 197.313 87.8663 197.512C87.8756 197.784 87.9213 198.053 87.9496 198.326C88.0118 198.757 88.0315 199.171 88.2 199.552C88.276 199.724 88.3783 199.877 88.5088 200.033C88.5708 200.145 88.7115 200.185 88.823 200.123C88.9346 200.061 88.9748 199.92 88.9129 199.809C88.9129 199.809 88.1401 196.225 89.0813 195.631C90.0225 195.037 90.5446 195.114 90.8199 195.046C90.9326 195.018 91.1778 194.717 91.1918 194.648C91.2059 194.579 91.1613 194.511 91.0923 194.497Z" fill="#00160A"/>
<path fill-rule="evenodd" clip-rule="evenodd" d="M91.0527 194.633L91.183 194.902C91.2248 195.078 91.2314 195.281 91.2359 195.475C91.24 195.647 91.2588 195.816 91.1508 195.957C91.0925 196.015 91.0925 196.11 91.1508 196.168C91.2092 196.227 91.3038 196.227 91.3621 196.168C91.5533 196.036 91.6703 195.849 91.7053 195.63C91.7508 195.346 91.6284 195.038 91.5221 194.79C91.4868 194.71 91.3522 194.515 91.2135 194.434C91.1031 194.37 90.9961 194.354 90.9122 194.421C90.8536 194.459 90.8373 194.538 90.876 194.597C90.9149 194.656 90.9941 194.672 91.0527 194.633Z" fill="#00160A"/>
<path fill-rule="evenodd" clip-rule="evenodd" d="M90.8941 196C90.7917 196.058 90.6967 196.118 90.6594 196.135C90.2986 196.299 90.0921 196.658 90.0367 197.088C89.9695 197.609 90.1606 198.215 90.2717 198.586C90.3036 198.714 90.4339 198.793 90.5622 198.761C90.6904 198.729 90.7685 198.598 90.7364 198.47C90.6515 198.088 90.5597 197.442 90.6522 196.947C90.6873 196.76 90.7167 196.583 90.861 196.471C90.861 196.471 90.9635 195.96 90.8941 196Z" fill="#00160A"/>
<path fill-rule="evenodd" clip-rule="evenodd" d="M88.3878 196.639C88.6039 196.882 88.5823 197.254 88.3396 197.47C87.9706 197.798 87.6471 198.049 87.3638 198.223L87.2257 198.304C86.9843 198.441 86.6629 198.599 86.2581 198.78C86.2078 198.803 85.74 198.95 85.5695 198.818C85.4792 198.748 85.3797 198.665 85.3277 198.547C85.3034 198.492 85.386 198.383 85.5379 198.244C85.7911 198.013 86.4645 197.888 86.9301 197.597C87.6918 197.12 88.2785 196.516 88.3878 196.639Z" fill="#00160A"/>
<path fill-rule="evenodd" clip-rule="evenodd" d="M90.4772 202.189C90.7073 201.959 91.0798 201.96 91.3093 202.19C92.3152 203.199 92.6148 204.165 91.9624 204.962C91.5456 205.47 90.9525 205.915 90.1116 206.251C89.7192 206.408 89.7667 206.483 88.7432 206.707C88.4258 206.777 88.112 206.576 88.0424 206.259C87.9727 205.941 88.1735 205.627 88.491 205.558L88.903 205.465C89.6411 205.295 90.7586 204.574 91.0522 204.216C91.2193 204.012 91.1091 203.656 90.476 203.021C90.2465 202.791 90.2471 202.418 90.4772 202.189Z" fill="#00160A"/>
<path fill-rule="evenodd" clip-rule="evenodd" d="M105.603 192.702C105.741 195.405 105.796 197.028 105.771 197.571C105.7 199.046 105.43 200.937 104.778 202.584C104.305 203.776 103.618 204.826 102.739 205.55C102.142 206.016 100.879 206.924 97.134 206.665C89.6143 206.145 90.8086 193.395 90.855 193.21C90.9016 193.024 91.0968 192.305 91.2828 192.35C91.6203 192.404 90.3123 205.648 96.9329 205.738C97.4468 205.745 97.9527 205.674 98.4709 205.606C99.189 205.552 99.9443 205.389 100.644 205.118C101.082 204.948 101.498 204.733 101.854 204.441C102.585 203.876 103.126 203.014 103.557 202.066C104.236 200.571 104.73 198.857 104.891 197.498C104.977 196.787 105.166 192.474 105.166 192.474C105.265 192.132 105.6 192.627 105.603 192.702Z" fill="#00160A"/>
<path fill-rule="evenodd" clip-rule="evenodd" d="M98.2783 191.153L98.6151 191.155C102.467 191.193 105.535 191.88 105.535 192.723C105.535 193.589 104.086 195.233 100.078 195.233L99.7411 195.231C94.3562 195.456 91.0212 193.565 91.0212 192.723C91.0212 191.856 94.2703 191.153 98.2783 191.153Z" fill="#00160A"/>
<path fill-rule="evenodd" clip-rule="evenodd" d="M98.2781 191.546L97.9518 191.548C94.3805 191.586 91.4133 192.241 91.4133 192.723C91.4133 193.218 94.563 194.292 98.2781 194.292L98.6043 194.29C102.176 194.252 105.143 193.204 105.143 192.723C105.143 192.227 101.993 191.546 98.2781 191.546Z" fill="white"/>
<path fill-rule="evenodd" clip-rule="evenodd" d="M103.919 140.518C104.099 140.769 104.321 141 104.583 141.202C104.859 141.418 105.181 141.552 105.501 141.647C106.127 141.814 106.744 141.982 107.382 142.086C109.348 142.406 114.272 142.945 114.756 143.035C115.082 143.13 115.424 142.942 115.519 142.615C115.614 142.288 115.425 141.945 115.098 141.85C114.606 141.653 114.119 141.467 113.611 141.336C112.858 141.142 112.085 141.051 111.314 140.962C110.001 140.806 108.684 140.676 107.364 140.594C106.803 140.562 106.25 140.57 105.69 140.532C105.516 140.525 105.342 140.5 105.169 140.444C104.874 140.351 104.588 140.24 104.348 140.077L103.708 139.598C103.639 139.597 103.582 139.655 103.582 139.726C103.582 139.797 103.87 140.443 103.919 140.518Z" fill="#00160A"/>
<path fill-rule="evenodd" clip-rule="evenodd" d="M110.072 145.212C110.405 145.571 110.954 145.872 111.558 145.963C112.171 146.051 112.801 145.902 113.227 145.664C113.359 145.599 113.412 145.438 113.346 145.307C113.28 145.175 113.121 145.123 112.99 145.189C112.698 145.316 112.308 145.336 111.908 145.318C111.739 145.309 111.57 145.286 111.401 145.273C110.96 145.232 110.541 145.198 110.234 145.015C110.18 144.972 110.1 144.979 110.055 145.033C110.01 145.087 110.018 145.166 110.072 145.212Z" fill="#00160A"/>
<path fill-rule="evenodd" clip-rule="evenodd" d="M243.341 59.1216C243.882 59.1536 244.294 59.6178 244.262 60.1585L244.154 62.0291C243.378 75.8598 243.196 87.5709 243.609 97.1592L243.628 97.5871C244.084 107.665 245.196 121.872 247.745 144.092C247.971 144.25 248.13 144.503 248.158 144.8C248.211 145.339 247.816 145.819 247.277 145.871C234.645 147.095 222.892 147.91 212.016 148.315L210.531 148.368C199.454 148.747 183.411 148.931 162.397 148.921C161.856 148.92 161.417 148.481 161.417 147.939C161.418 147.398 161.857 146.959 162.398 146.959L166.821 146.958C186.069 146.942 200.84 146.751 211.133 146.385L212.719 146.326C222.957 145.927 233.975 145.167 245.772 144.045C245.355 139.855 242.105 107.024 241.683 97.9823L241.669 97.6757C241.209 87.5064 241.421 74.9633 242.304 60.0426C242.335 59.5236 242.764 59.1228 243.277 59.1199L243.341 59.1216ZM153.342 61.1006C153.879 61.0287 154.372 61.4056 154.444 61.9425L154.8 64.6148C156.939 80.8243 158.356 93.709 159.051 103.273L159.116 104.198C159.819 114.358 160.258 129.1 160.431 148.432C160.436 148.974 160.001 149.417 159.459 149.422C158.918 149.426 158.475 148.991 158.47 148.45L158.442 145.59C158.258 128.26 157.851 114.814 157.222 105.256L157.16 104.334C156.46 94.2222 154.907 80.1767 152.5 62.2027C152.428 61.6659 152.805 61.1725 153.342 61.1006Z" fill="#00160A"/>
<path fill-rule="evenodd" clip-rule="evenodd" d="M87.9414 151.938C88.483 151.934 88.9252 152.37 88.9291 152.911C88.9329 153.453 88.497 153.895 87.9554 153.899C77.1411 153.976 69.7266 157.095 65.5993 163.21C60.7074 170.458 56.0949 182.285 56.3944 197.592C56.6172 208.981 80.5685 207.174 86.3112 206.869C87.0779 206.828 87.6003 207.237 87.5945 207.297C87.5508 207.756 87.1867 208.135 86.7107 208.18C79.7127 208.844 73.8303 208.16 69.0849 207.68C59.0492 206.666 54.0988 203.844 54.4358 197.488C55.2624 181.897 59.6518 169.678 64.7581 162.113C69.2919 155.395 76.5342 152.019 87.9414 151.938Z" fill="#00160A"/>
<path fill-rule="evenodd" clip-rule="evenodd" d="M88.126 111.892C87.1455 112.852 87.0094 114.915 87.2921 118.546L87.3245 118.949C87.3658 119.443 87.4133 119.95 87.4726 120.538L87.7861 123.621C87.8802 124.606 87.8806 124.805 87.8492 124.988L87.8117 125.195C87.5433 126.656 86.8881 128.16 86.6408 128.904L86.5884 129.055L86.5589 129.01C84.4958 125.897 82.6038 123.637 80.7929 123.022C78.5815 122.273 76.6743 123.382 75.2453 126.027L75.1624 126.183C72.5611 131.162 75.4308 134.244 82.3259 135.807L82.4602 135.837L82.6694 136.355C89.3339 152.674 98.8691 159.628 111.867 156.1C120.715 153.698 125.946 145.925 128.018 134.852C129.511 126.867 129.105 117.212 127.635 112.965C127.183 111.659 126.439 110.958 125.319 110.854C124.937 110.819 124.54 110.852 124.038 110.946L123.799 110.993C123.403 111.079 122.394 111.317 122.355 111.325C120.481 111.748 118.928 111.886 117.02 111.656L116.758 111.622C115.567 111.459 114.443 111.277 112.773 110.983L110.106 110.515C107.847 110.127 106.966 110.01 105.543 109.887C103.109 109.675 100.992 109.757 98.9613 110.202L98.7078 110.26C97.8318 110.465 97.1902 110.779 95.9093 110.374L95.3051 110.177C92.4227 109.243 90.8936 109.184 88.126 111.892ZM95.0011 111.749C96.7436 112.322 97.7006 112.485 99.0185 112.2L99.5023 112.091C102.627 111.408 105.019 111.614 111.704 112.786L113.307 113.067C114.546 113.28 115.494 113.429 116.493 113.565C118.693 113.865 120.47 113.739 122.528 113.296L124.629 112.826C124.991 112.75 124.947 112.779 125.077 112.8L125.138 112.807C125.413 112.833 126.346 112.973 126.566 113.607C127.916 117.509 128.309 126.823 126.874 134.491C124.927 144.902 119.339 152.039 111.353 154.207C99.1831 157.51 90.0339 151.234 83.7 135.022L83.5052 134.524L82.9802 134.418L82.6056 134.34C76.5769 133.048 74.5407 130.731 76.5787 126.959C77.5994 125.07 78.9977 124.485 80.163 124.88C81.5809 125.361 83.3673 127.215 85.4086 130.452L85.4314 130.486C86.3267 131.781 87.5692 131.285 88.2005 129.91C88.5943 129.052 88.9686 127.617 89.3458 125.564L89.4216 125.145C89.4856 124.752 89.4556 124.438 89.127 121.266L89.0107 120.13C88.9691 119.711 88.9337 119.332 88.9023 118.967L88.8869 118.786C88.758 117.241 88.7106 116.01 88.7591 115.042C88.8084 114.059 88.9663 113.431 89.1055 113.294L89.3386 113.07C91.3631 111.153 92.5109 110.962 94.5822 111.613L95.0011 111.749Z" fill="#00160A"/>
<path fill-rule="evenodd" clip-rule="evenodd" d="M101.133 88.246C101.477 88.246 101.825 88.258 102.178 88.2817C104.169 88.4153 105.964 88.8299 108.889 89.7255L110.641 90.2662C113.69 91.1973 114.704 91.4157 116.062 91.4157C126.594 91.4157 132.023 94.9882 132.377 100.859C132.649 105.362 129.503 110.72 125.965 112.556C125.484 112.805 124.892 112.618 124.643 112.137C124.393 111.656 124.581 111.064 125.062 110.815C127.922 109.331 130.644 104.695 130.42 100.977C130.141 96.3639 125.759 93.436 116.349 93.3779L115.891 93.3761C114.337 93.3593 113.201 93.1021 109.938 92.1023L108.328 91.6051C105.534 90.749 103.85 90.3597 102.047 90.2387C101.736 90.2179 101.432 90.2073 101.133 90.2073C88.632 90.2073 76.3172 100.859 74.6223 110.815C74.2102 113.235 76.85 126.716 76.3172 126.813C75.7844 126.911 75.2737 126.558 75.1765 126.025L75.0617 125.385C73.925 118.941 72.699 113.122 73.3998 110.073C76.2371 97.7246 87.7028 88.246 101.133 88.246Z" fill="#00160A"/>
<path fill-rule="evenodd" clip-rule="evenodd" d="M115.03 116.76C115.619 116.76 115.9 118.076 115.797 118.413C115.351 119.879 116.468 128.231 117.295 130.389L117.334 130.489C118.535 133.477 116.788 135.409 112.831 135.947C112.294 136.02 111.8 135.645 111.727 135.108C111.704 134.94 111.851 134.497 112.22 134.529C114.938 134.766 116.91 132.435 116.329 130.904L116.254 130.714C115.305 128.248 114.237 122.863 114.237 117.754C114.237 117.212 114.514 116.76 115.03 116.76Z" fill="#00160A"/>
<path fill-rule="evenodd" clip-rule="evenodd" d="M77.5281 134.054C77.8107 134.74 77.5809 141.603 81.1863 145.324C84.0513 148.281 87.3096 147.312 88.0742 146.396C88.4484 145.948 89.1474 146.345 89.3919 146.828C89.6364 147.312 89.4428 147.902 88.9595 148.146C86.4933 149.394 83.2095 148.931 81.1863 147.199C77.672 144.191 76.9053 137.623 76.9053 135.294C76.9053 134.431 77.2764 133.443 77.5281 134.054Z" fill="#00160A"/>
<path fill-rule="evenodd" clip-rule="evenodd" d="M118.33 125.483C118.672 124.968 119.173 124.908 119.68 125.118C120.174 125.323 120.661 125.853 120.819 126.209C121.054 126.738 121.057 127.603 120.868 128.426C120.675 129.269 120.286 130.054 119.865 130.408C119.465 130.741 119.129 130.876 118.771 130.347C117.402 128.327 118.198 125.681 118.33 125.483Z" fill="#00160A"/>
<path fill-rule="evenodd" clip-rule="evenodd" d="M103.018 127.437C102.87 126.892 102.88 124.072 103.946 124.072C105.531 124.072 105.733 127.007 105.53 127.6C104.383 130.94 103.167 127.983 103.018 127.437Z" fill="#00160A"/>
<path fill-rule="evenodd" clip-rule="evenodd" d="M116.597 97.0774C116.286 96.6484 117.513 96.5163 117.96 96.8223C121.701 99.3833 123.622 101.832 123.589 104.275C123.556 106.674 121.61 109.353 117.836 112.444C117.417 112.787 116.799 112.726 116.456 112.307C116.113 111.888 121.36 108.518 121.628 104.248C121.896 99.9788 117.18 97.8823 116.597 97.0774Z" fill="#00160A"/>
<path fill-rule="evenodd" clip-rule="evenodd" d="M122.408 96.04C122.248 95.3443 123.262 95.3877 123.738 95.6462C126.756 97.2854 128.31 99.8266 128.31 103.147C128.31 106.399 126.111 109.233 122.793 112.514C122.408 112.895 121.787 112.891 121.406 112.506C121.025 112.121 126.762 108.103 126.762 102.309C126.762 96.516 122.625 96.9845 122.408 96.04Z" fill="#00160A"/>
<ellipse cx="121.422" cy="134.47" rx="3.72657" ry="1.37296" fill="#FFB61D"/>
<path fill-rule="evenodd" clip-rule="evenodd" d="M117.421 117.931C118.307 117.614 119.532 117.809 121.13 118.465C121.402 118.577 121.667 118.723 121.955 118.913L122.156 119.052C122.527 119.317 123.159 119.788 123.283 119.875C123.684 120.156 124.049 120.378 124.444 120.568C124.821 120.75 125.434 120.918 126.272 121.061C126.592 121.116 126.808 121.42 126.753 121.74C126.699 122.06 123.057 121.546 122.607 121.23L121.68 120.553C121.519 120.435 121.38 120.336 121.307 120.287C121.077 120.136 120.878 120.026 120.684 119.946C119.378 119.411 118.432 119.248 117.877 119.412L117.817 119.432C116.659 119.146 117.115 118.041 117.421 117.931Z" fill="#00160A"/>
<path fill-rule="evenodd" clip-rule="evenodd" d="M88.3087 146.955C88.6629 146.819 89.0596 146.997 89.1948 147.351C89.6172 148.459 89.8655 150.894 89.9381 151.538C90.0086 152.166 90.0086 152.78 89.9376 153.38C89.8931 153.757 89.5517 154.026 89.1752 153.981C88.7987 153.937 88.5296 153.595 88.5742 153.219C88.6327 152.724 88.6327 152.216 88.5737 151.692C88.5167 151.186 88.2967 148.849 87.912 147.841C87.7768 147.486 87.9544 147.09 88.3087 146.955Z" fill="#00160A"/>
<path fill-rule="evenodd" clip-rule="evenodd" d="M88.5451 153.39C88.9017 152.982 90.1025 152.305 89.9289 153.297C89.7553 154.29 87.2705 155.444 87.2705 157.353C87.2705 160.188 88.3637 162.902 92.2957 164.036C106.38 168.098 111.348 157.755 111.739 158.129C112.131 158.504 112.144 159.125 111.77 159.516C109.558 161.829 107.774 163.371 106.38 164.155C101.481 166.912 96.1627 167.458 91.651 165.888C87.5245 164.452 84.645 160.37 86.3584 156.364C86.6365 155.714 87.3523 154.754 88.5451 153.39Z" fill="#00160A"/>
<path fill-rule="evenodd" clip-rule="evenodd" d="M187.131 51.6201C187.575 51.3101 188.186 51.4188 188.496 51.8629C188.806 52.3069 188.305 52.9458 187.861 53.2559C186.381 54.2886 182.818 57.6621 182.088 58.4347L181.387 59.1816C180.01 60.6645 163.607 77.7209 163.214 77.3492C162.852 77.0083 178.857 59.4096 180.057 58.1234L180.103 58.0749C181.237 56.8644 182.285 55.7729 183.288 54.7623C184.281 53.7617 185.561 52.7158 187.131 51.6201Z" fill="#E7EAEE"/>
<path fill-rule="evenodd" clip-rule="evenodd" d="M187.131 66.1342C187.575 65.8241 188.186 65.9328 188.496 66.3769C188.806 66.821 188.697 67.4323 188.253 67.7424C186.774 68.7751 163.703 92.0485 163.213 91.8632C162.724 91.6779 165.088 88.9126 165.088 88.9126C166.599 87.3312 180.103 72.9812 180.103 72.9812C181.237 71.7707 182.285 70.6793 183.288 69.6686C184.281 68.668 185.561 67.2298 187.131 66.1342Z" fill="#00160A"/>
<path fill-rule="evenodd" clip-rule="evenodd" d="M208.796 55.0094C209.163 54.6108 209.783 54.5849 210.182 54.9515C210.581 55.3182 210.607 55.9385 210.24 56.3372C210.24 56.3372 165.63 107.048 165.224 105.636C165.001 104.86 183.761 82.3197 186.712 79.2813L187.531 78.4538C188.915 77.0171 195.766 69.1762 208.796 55.0094Z" fill="#00160A"/>
<path fill-rule="evenodd" clip-rule="evenodd" d="M105.84 116.791C106.649 116.69 108.048 116.828 109.582 117.31C110.098 117.473 110.386 118.023 110.223 118.54C110.061 119.057 109.51 119.344 108.994 119.181C107.692 118.772 106.688 118.563 106.008 118.545L105.84 118.545C105.602 118.55 105.427 118.592 104.752 118.85L103.735 119.248C102.761 119.632 102.044 119.858 101.25 119.988C100.355 120.135 99.0042 120.075 97.1491 119.823C96.6124 119.75 95.6949 119.113 96.3095 118.719C96.9241 118.325 99.5229 118.755 100.741 118.54C101.96 118.325 104.273 116.986 105.84 116.791Z" fill="#00160A"/>
<path fill-rule="evenodd" clip-rule="evenodd" d="M63.9294 183.976C68.3456 183.899 70.2276 185.127 69.8213 185.524C69.8213 185.524 65.13 185.167 63.9294 185.127C62.6603 185.085 56.8507 184.997 56.6907 184.48C56.6299 184.283 56.6341 184.082 56.6911 183.899C56.7506 183.708 57.8924 183.825 59.8668 183.914C60.9739 183.963 62.3427 184.004 63.9294 183.976Z" fill="#00160A"/>
<path fill-rule="evenodd" clip-rule="evenodd" d="M70.9113 207.701C70.9113 207.701 70.514 226.424 73.1717 227.95C73.5388 228.161 73.4987 228.974 73.0951 229.335C72.6916 229.696 72.0716 229.662 71.7104 229.258C69.2683 226.531 68.6297 218.83 69.595 207.497C69.6391 206.979 70.9573 207.162 70.9113 207.701Z" fill="#00160A"/>
<path fill-rule="evenodd" clip-rule="evenodd" d="M132.469 218.359L132.416 218.363L129.286 218.652C109.726 220.482 97.5021 222.286 87.8956 224.066L86.9931 224.235C82.3579 225.123 78.5522 226.006 76.3406 226.898C73.5745 228.013 71.0855 229.342 71.9684 231.001C73.5069 233.891 76.7446 235.023 83.8373 235.808L84.5937 235.888C90.0767 236.448 95.9695 236.584 110.908 236.659L116.013 236.689C134.223 236.81 144.754 237.465 158.391 238.301L159.781 238.387C184.893 239.973 204.939 239.719 219.917 237.961L220.369 237.907C232.47 236.453 240.635 234.047 244.186 231.317C246.277 229.711 246.597 228.1 246.654 226.611C246.706 225.272 243.633 223.249 241.877 222.584C236.987 220.732 235.391 220.061 225.989 219.113C207.419 217.241 176.515 216.729 132.469 218.359ZM226.184 220.672L226.801 220.735C235.566 221.652 241.32 222.975 243.974 224.638L244.14 224.745C246.178 226.1 245.92 227.511 242.991 229.762C239.788 232.224 231.915 234.544 220.135 235.96C205.387 237.733 185.56 238.019 160.661 236.477L158.05 236.315C143.675 235.443 132.646 235.208 112.234 235.097L106.599 235.065C94.4467 234.98 89.2814 234.812 84.295 234.277L83.8209 234.225C77.5697 233.51 74.1149 232.204 72.9574 230.156L72.9151 230.079C72.8931 230.038 72.8929 230.038 73.0609 229.868C73.3971 229.527 74.0867 229.13 75.1125 228.717L75.3782 228.612C77.6015 227.757 81.1156 226.88 85.8993 225.994L86.8053 225.829C96.3555 224.113 110.598 222.37 129.522 220.6L132.566 220.318L135.164 220.224C177.748 218.698 208.096 218.848 226.184 220.672Z" fill="#00160A"/>
<path d="M181.567 201.56C181.209 214.627 180.186 223.331 178.445 226.376C176.972 228.953 172.028 229.828 165.761 229.404L163.504 229.24C160.44 229.011 158.731 228.843 157.083 228.589L156.859 228.554C154.207 228.13 152.458 227.545 151.478 226.594C147.859 223.086 145.941 215.313 145.574 203.205C145.558 202.664 146.993 203.162 147.535 203.146C147.647 203.142 154.122 203.923 163.033 203.508C168.318 203.261 181.567 201.56 181.567 201.56Z" fill="white"/>
<path fill-rule="evenodd" clip-rule="evenodd" d="M146.681 203.057C147.04 216.124 150.12 223.718 151.861 226.763C153.334 229.34 158.278 230.215 164.545 229.791L166.801 229.627C169.866 229.397 158.623 226.049 154.741 221.808C150.387 217.051 146.681 203.057 146.681 203.057Z" fill="#E7EAEE"/>
<path fill-rule="evenodd" clip-rule="evenodd" d="M149.332 207.104C149.405 206.567 150.067 205.649 150.436 206.265C150.806 206.881 150.971 208.375 151.74 210.283L153.371 213.445C153.515 213.803 153.646 214.135 153.769 214.455L153.842 214.645C154.578 216.576 155.03 217.708 155.19 218.993C155.257 219.531 154.876 220.021 154.338 220.088C153.801 220.155 153.311 219.774 153.244 219.236C153.107 218.143 153.086 216.747 152.402 214.951L152.258 214.579C152.16 214.326 152.056 214.064 151.943 213.785L150.811 211.032C150.615 210.55 150.463 210.168 150.33 209.813L150.223 209.524C149.816 208.403 149.253 207.678 149.332 207.104Z" fill="#00160A"/>
<path fill-rule="evenodd" clip-rule="evenodd" d="M123.512 145.555C122.908 146.014 123.646 146.661 123.882 147.366C123.936 147.527 124.004 147.693 124.095 147.887L124.205 148.117L124.456 148.615L124.559 148.826C124.671 149.058 124.75 149.24 124.813 149.413C125.007 149.948 124.989 150.189 124.806 150.352C123.776 151.272 122.682 151.887 120.585 152.816L119.427 153.322C115.936 154.865 113.607 155.888 112.294 157.976C110.561 160.731 111.024 164.68 112.232 170.43L112.289 170.697C112.52 171.768 112.075 173.726 111.755 176.691L111.732 176.905C111.601 178.09 111.432 179.417 111.201 181.102L110.28 187.639C109.932 190.139 109.673 192.127 109.449 194.075L109.364 194.827C108.689 200.916 108.495 205.704 108.885 209.593C109.224 212.967 111.2 217.793 113.532 220.099C116.957 223.487 120.362 221.882 123.443 214.876C124.819 211.745 125.671 208.806 126.077 205.818C126.621 201.823 126.398 197.75 125.45 192.256L125.351 191.698C124.703 188.137 121.87 175.014 121.532 173.35L121.422 172.82L120.702 169.465C120.656 169.246 120.613 169.039 120.572 168.836L120.438 168.172C119.842 165.144 119.635 163.134 119.86 161.833C119.881 161.711 119.985 161.53 120.197 161.302C120.527 160.945 121.051 160.543 121.823 160.045L122.166 159.829C122.889 159.384 124.608 158.36 124.62 158.353L124.99 158.127C128.621 155.88 130.329 154.118 130.329 151.624C130.329 149.147 129.284 147.254 127.587 146.124C126.176 145.185 124.399 144.881 123.512 145.555ZM125.49 147.869L125.153 147.191L125.115 147.183C125.554 147.259 126.048 147.456 126.5 147.757C127.658 148.528 128.367 149.813 128.367 151.624C128.367 153.174 126.999 154.576 123.943 156.468L123.409 156.792C122.886 157.103 121.456 157.958 120.961 158.269L120.919 158.295C119.935 158.92 119.25 159.437 118.757 159.969C118.309 160.453 118.021 160.953 117.927 161.5C117.636 163.185 117.89 165.479 118.602 168.994L118.783 169.869L119.443 172.937L119.813 174.712C120.57 178.295 122.904 189.163 123.439 192.145L123.457 192.244C124.424 197.735 124.658 201.705 124.134 205.553C123.752 208.355 122.952 211.119 121.647 214.087C120.238 217.291 118.822 219.087 117.519 219.637C116.545 220.049 115.568 219.743 114.519 218.705C112.544 216.751 110.741 212.349 110.445 209.397C110.071 205.672 110.261 201.002 110.922 195.036L111.005 194.299C111.237 192.285 111.507 190.222 111.876 187.58L112.68 181.887L112.853 180.625C113.025 179.348 113.16 178.277 113.269 177.302L113.338 176.667C113.651 173.698 113.702 171.692 113.441 170.38L113.421 170.282C112.245 164.842 112.12 161.313 113.562 159.02C114.583 157.396 116.25 156.534 119.27 155.19L120.615 154.6C122.88 153.596 124.107 152.905 125.327 151.816C126.23 151.01 126.31 149.95 125.871 148.743C125.772 148.469 125.655 148.205 125.49 147.869Z" fill="#00160A"/>
<path d="M125.49 147.869L125.153 147.191L125.115 147.183C125.554 147.259 126.048 147.456 126.5 147.757C127.658 148.528 128.368 149.813 128.368 151.624C128.368 153.174 126.999 154.576 123.943 156.468L123.409 156.792C122.887 157.103 121.456 157.958 120.961 158.269L120.92 158.295C119.935 158.92 119.25 159.437 118.758 159.969C118.309 160.453 118.022 160.953 117.927 161.5C117.636 163.185 117.891 165.479 118.602 168.994L118.783 169.869L119.443 172.937L119.813 174.712C120.57 178.295 122.905 189.163 123.439 192.145L123.457 192.244C124.425 197.735 124.658 201.705 124.134 205.553C123.753 208.355 122.952 211.119 121.647 214.087C120.238 217.292 118.822 219.087 117.519 219.637C116.545 220.049 115.568 219.743 114.519 218.705C112.544 216.751 110.741 212.349 110.445 209.397C110.071 205.672 110.261 201.002 110.922 195.036L111.005 194.299C111.237 192.285 111.507 190.222 111.876 187.58L112.681 181.887L112.853 180.625C113.025 179.348 113.16 178.277 113.269 177.302L113.338 176.667C113.651 173.698 113.702 171.692 113.441 170.38L113.421 170.282C112.245 164.842 112.12 161.313 113.562 159.02C114.583 157.396 116.25 156.534 119.27 155.19L120.615 154.6C122.88 153.596 124.107 152.905 125.328 151.816C126.23 151.01 126.31 149.95 125.872 148.743C125.772 148.469 125.655 148.205 125.49 147.869Z" fill="white"/>
<path fill-rule="evenodd" clip-rule="evenodd" d="M119.148 161.021C119.417 160.551 120.015 160.386 120.486 160.654C126.147 163.879 129.391 167.76 130.121 172.302C130.823 176.676 126.243 199.44 125.714 199.325C125.185 199.21 124.848 198.688 124.963 198.159L125.211 197.006C127.83 184.709 128.815 176.539 128.184 172.613C127.561 168.733 124.704 165.314 119.515 162.359C119.045 162.091 118.88 161.492 119.148 161.021Z" fill="#00160A"/>
<path fill-rule="evenodd" clip-rule="evenodd" d="M121.478 147.902C121.934 147.609 122.541 147.741 122.834 148.197C123.338 148.982 123.64 149.621 123.734 150.167C123.827 150.704 123.765 151.426 123.568 152.386C123.459 152.916 122.941 153.258 122.41 153.149C122.162 153.098 121.955 152.957 121.816 152.768C121.658 152.552 122.586 151.991 122.586 150.501C122.586 149.011 121.023 148.195 121.478 147.902Z" fill="#00160A"/>
<path fill-rule="evenodd" clip-rule="evenodd" d="M121.12 149.414C121.358 149.215 121.567 149.963 121.521 150.332C121.451 150.89 121.451 152.894 120.662 153.841C120.35 154.217 119.839 154.532 119.352 154.295C119.136 154.191 119.808 153.255 120.216 152.197C120.511 151.431 120.742 150.61 120.898 150.059C121.014 149.651 120.874 149.619 121.12 149.414Z" fill="#00160A"/>
<path fill-rule="evenodd" clip-rule="evenodd" d="M180.611 200.51C181.152 200.524 181.58 200.974 181.567 201.515L181.546 202.322C181.187 215.389 180.186 223.331 178.445 226.377C176.972 228.953 172.028 229.828 165.761 229.404L163.504 229.24C160.44 229.011 158.731 228.843 157.083 228.589L156.859 228.554C154.207 228.13 152.458 227.545 151.478 226.594C147.859 223.086 145.941 215.313 145.574 203.205C145.558 202.664 145.984 202.212 146.525 202.195C147.066 202.179 147.518 202.604 147.535 203.146L147.558 203.838C147.96 215.067 149.768 222.205 152.843 225.186L152.917 225.254C154.049 226.257 156.857 226.754 163.371 227.262L165.685 227.433L166.088 227.46C171.497 227.798 175.817 227.022 176.742 225.403C178.288 222.699 179.276 214.64 179.606 201.466C179.62 200.925 180.07 200.497 180.611 200.51Z" fill="#00160A"/>
<path fill-rule="evenodd" clip-rule="evenodd" d="M145.02 164.122C145.207 163.614 148.338 164.391 149.169 164.878C149.474 165.057 156.455 168.33 158.465 169.589C161.016 171.187 162.809 178.072 162.204 185.801C162.115 186.939 161.429 188.193 160.186 189.622C159.83 190.031 159.211 190.074 158.802 189.718C158.393 189.363 158.35 188.743 158.706 188.335C159.698 187.194 160.199 186.278 160.249 185.648L160.279 185.227C160.749 178.365 159.538 171.941 157.887 170.907L157.566 170.709C156.005 169.764 155.052 169.453 153.143 169.098C153.143 169.098 150.165 166.698 148.99 166.027C146.386 164.54 144.934 164.355 145.02 164.122Z" fill="#00160A"/>
<path fill-rule="evenodd" clip-rule="evenodd" d="M171.388 156.018C171.773 156.399 163.647 163.37 163.214 163.761C161.884 164.96 161.06 167.682 161.398 171.209L161.417 171.403C161.486 172.062 161.719 174.725 161.728 175.099L161.754 175.647C161.766 175.839 161.784 176.042 161.82 176.39L162.011 178.148C162.331 181.06 162.416 183.099 162.204 185.801C162.115 186.939 161.429 188.193 160.186 189.622C159.83 190.031 159.211 190.074 158.802 189.718C158.394 189.363 160.936 185.912 160.985 185.281C161.178 182.825 159.854 176.453 159.854 176.453C159.798 175.895 159.791 175.714 159.771 175.249C159.746 174.653 159.803 174.186 159.975 173.337L160.11 172.684C160.249 171.99 160.288 171.639 160.257 171.272L160.251 171.214C160.018 168.985 160.149 167.179 160.596 165.724C160.998 164.416 161.654 163.393 162.531 162.602C162.916 162.255 163.307 161.981 163.775 161.707L164.327 161.392C164.396 161.352 164.44 161.324 164.468 161.303L164.548 161.242C165.315 160.648 171.004 155.636 171.388 156.018Z" fill="#00160A"/>
<path fill-rule="evenodd" clip-rule="evenodd" d="M180.483 170.774C180.616 171.299 167.536 175.678 165.797 177.169C163.415 179.21 162.143 182.175 162.507 184.822L162.529 184.969C162.767 186.441 162.156 187.982 160.077 189.729C159.662 190.078 159.043 190.024 158.695 189.609C158.347 189.195 158.4 188.576 158.815 188.228C160.41 186.887 161.079 185.86 160.985 185.281C160.438 181.886 161.992 178.183 164.913 175.68C167.03 173.865 180.351 170.249 180.483 170.774Z" fill="#00160A"/>
<path fill-rule="evenodd" clip-rule="evenodd" d="M140.452 161.474C144.777 160.509 148.53 160.509 151.705 161.495C155.111 162.553 156.891 164.952 156.891 168.493C156.891 168.682 156.837 168.859 156.744 169.009L156.7 169.073L156.733 169.123C156.787 169.21 156.827 169.306 156.852 169.41L156.865 169.473C156.956 170.007 156.597 170.514 156.063 170.605L155.559 170.689C150.408 171.532 147.037 171.521 145.287 170.555C143.51 169.574 141.716 167.015 139.776 162.845C139.512 162.277 139.841 161.611 140.452 161.474ZM151.124 163.368C148.633 162.595 145.678 162.505 142.255 163.112L142.094 163.141L142.129 163.212C143.644 166.25 145.017 168.12 146.164 168.798L146.236 168.838C147.39 169.476 150.138 169.521 154.354 168.892L154.977 168.796L154.962 168.744C154.946 168.684 154.936 168.621 154.932 168.557L154.93 168.493C154.93 165.814 153.712 164.172 151.124 163.368Z" fill="#00160A"/>
<path fill-rule="evenodd" clip-rule="evenodd" d="M174.306 151.254C174.805 151.263 175.218 151.645 175.266 152.141C175.611 155.75 175.159 158.491 173.846 160.356C172.43 162.369 169.692 163.004 165.761 162.418C165.246 162.342 164.885 161.879 164.928 161.368L164.932 161.335L164.882 161.321C164.663 161.252 164.468 161.106 164.34 160.897L164.307 160.838C162.951 158.23 163.584 155.805 166.074 153.868C168.33 152.114 171.011 151.242 174.081 151.252L174.306 151.254ZM173.391 153.38L173.382 153.228L173.379 153.229C171.035 153.341 169.01 154.07 167.278 155.416C165.51 156.791 165.144 158.195 166.048 159.934C166.131 160.094 166.166 160.266 166.157 160.435L166.152 160.493L166.23 160.505C169.341 160.941 171.291 160.492 172.192 159.297L172.243 159.228C173.126 157.972 173.524 156.024 173.391 153.38Z" fill="#00160A"/>
<path d="M91.5952 196.668C92.7602 196.708 93.1978 198.012 92.5192 199.323C92.0495 200.231 90.9013 201.185 89.7153 201.746C89.0381 202.066 88.2532 202.108 87.3799 201.888C87.0647 201.809 86.8736 201.489 86.953 201.174C87.0324 200.859 87.3522 200.667 87.6673 200.747C88.2914 200.904 87.806 200.039 87.7703 199.716C87.7345 199.393 87.9674 199.102 88.2904 199.066C88.8823 199.001 89.1916 198.695 89.492 198.489C89.5762 198.431 89.6861 198.316 89.8404 198.123L90.0152 197.897L90.0756 197.817C90.7391 196.936 90.9991 196.668 91.5346 196.667L91.5952 196.668Z" fill="white"/>
<path fill-rule="evenodd" clip-rule="evenodd" d="M91.5952 196.668C92.7602 196.708 93.1978 198.012 92.5192 199.323C92.0495 200.231 90.9013 201.185 89.7153 201.746C89.0381 202.066 88.2532 202.108 87.3799 201.888C87.0647 201.809 86.8736 201.489 86.953 201.174C87.0324 200.859 87.3522 200.667 87.6673 200.747C88.2914 200.904 88.7999 200.877 89.212 200.682C90.185 200.222 91.1396 199.428 91.4741 198.782C91.6669 198.41 91.7083 198.118 91.6498 197.944C91.6372 197.906 91.6236 197.881 91.6083 197.866L91.5929 197.854L91.5724 197.87C91.5554 197.884 91.5362 197.9 91.5151 197.92L91.4821 197.952C91.3838 198.05 91.2942 198.158 91.1198 198.387L90.8847 198.698C90.5966 199.075 90.3957 199.297 90.1566 199.46C89.679 199.787 89.1893 200.151 88.4198 200.236C88.0968 200.272 87.806 200.039 87.7703 199.716C87.7345 199.393 87.9674 199.102 88.2904 199.066C88.8823 199.001 89.1916 198.695 89.492 198.489C89.5762 198.431 89.6861 198.316 89.8404 198.123L90.0152 197.897L90.0756 197.817C90.7391 196.936 90.9991 196.668 91.5346 196.667L91.5952 196.668Z" fill="#00160A"/>
<path fill-rule="evenodd" clip-rule="evenodd" d="M92.0167 199.291C92.7318 199.315 92.9942 199.942 92.9367 200.677C92.8937 201.224 92.6725 201.811 92.3372 202.185C91.9126 202.658 91.3197 203.064 90.5169 203.484L90.3535 203.568C90.0636 203.715 89.8633 203.81 89.3331 204.055C88.6828 204.356 87.8163 204.464 86.7266 204.397C86.4023 204.377 86.1554 204.098 86.1752 203.774C86.195 203.45 86.474 203.203 86.7984 203.223C87.7104 203.278 88.3929 203.194 88.8388 202.987L89.3917 202.729C89.553 202.653 89.6757 202.592 89.8212 202.518C90.5883 202.129 91.1282 201.77 91.4612 201.399C91.598 201.246 91.7179 200.946 91.7553 200.662L91.7634 200.585L91.7642 200.569L91.7185 200.596C91.605 200.708 90.1771 201.567 90.0227 201.598C88.0136 201.997 88.3799 201.838 87.6104 201.923C87.2874 201.959 86.9966 201.726 86.9608 201.403C86.9251 201.08 87.158 200.789 87.481 200.753C87.6937 200.73 88.0937 201.109 88.5368 201.074C88.9155 201.044 89.8533 200.562 89.8533 200.562L90.2576 200.225C90.3577 200.142 90.4442 200.071 90.5277 200.005L90.7262 199.851C91.238 199.466 91.6165 199.278 92.0167 199.291Z" fill="#00160A"/>
<path fill-rule="evenodd" clip-rule="evenodd" d="M89.9594 205.021C90.7571 204.73 91.412 205.444 91.7188 206.127C92.0518 206.867 91.6432 207.52 90.8701 207.998C90.3461 208.322 89.6345 208.569 89.1033 208.629C88.3546 208.713 87.4646 208.463 86.4138 207.904C86.127 207.751 86.0182 207.394 86.1709 207.108C86.3236 206.821 86.68 206.712 86.9668 206.865C87.8269 207.323 88.5015 207.512 88.9714 207.459C89.3295 207.419 89.8749 207.23 90.2514 206.997C90.4387 206.881 91.2385 206.127 90.3622 206.127C90.0314 206.127 89.654 205.943 89.6079 205.775C89.5618 205.607 89.654 205.132 89.9594 205.021Z" fill="#00160A"/>
<path fill-rule="evenodd" clip-rule="evenodd" d="M101.164 192.59C101.291 192.525 101.483 192.638 101.499 192.773L101.5 192.802L101.454 193.265L102.812 192.59C102.883 192.552 102.996 192.576 103.081 192.643L103.111 192.67C103.189 192.748 103.202 192.839 103.147 192.888L103.123 192.905L101.321 193.764C101.175 193.827 100.972 193.715 100.967 193.58L100.969 193.551L100.902 193.265L99.5217 193.763C99.3796 193.822 99.2043 193.733 99.1945 193.606L99.1952 193.577L99.1657 193.224L97.4741 193.764C97.315 193.824 97.1529 193.723 97.1778 193.593L97.186 193.564L97.2092 193.224L95.8524 193.705C95.6957 193.766 95.546 193.682 95.5685 193.556L95.5767 193.527L95.654 193.177L94.4036 193.533C94.256 193.584 94.1294 193.516 94.1459 193.403L94.1531 193.374L94.2874 192.985L93.2851 193.224C93.1766 193.25 93.0905 193.211 93.0781 193.137L93.0771 193.108C93.0844 193.026 93.1676 192.939 93.2697 192.901L93.3086 192.889L94.5658 192.579C94.6917 192.548 94.7872 192.616 94.7743 192.718L94.768 192.747L94.66 193.096L96.0103 192.589C96.1512 192.533 96.2819 192.618 96.2647 192.741L96.258 192.77L96.1043 193.237L97.6051 192.592C97.7478 192.526 97.9036 192.627 97.8876 192.76L97.8814 192.789L97.7209 193.288L99.385 192.589C99.5116 192.532 99.6716 192.622 99.6876 192.747L99.6886 192.777L99.6526 193.296L101.164 192.59Z" fill="#FFB61D"/>
<ellipse rx="4.05639" ry="1.1397" transform="matrix(0.987716 0.156257 -0.156259 0.987716 103.789 133.294)" fill="#FFB61D"/>
<path fill-rule="evenodd" clip-rule="evenodd" d="M71.6398 159.385L72.3477 160.873L73.9359 161.312L72.7395 162.445L72.8131 164.091L71.3658 163.303L69.8229 163.882L70.1249 162.262L69.0978 160.974L70.7317 160.76L71.6398 159.385Z" fill="#00160A"/>
<path fill-rule="evenodd" clip-rule="evenodd" d="M83.1027 156.638L83.6143 157.775L84.7696 158.106L83.8955 158.977L83.9447 160.236L82.893 159.637L81.7681 160.084L81.9922 158.843L81.2477 157.86L82.4379 157.693L83.1027 156.638Z" fill="#00160A"/>
<path fill-rule="evenodd" clip-rule="evenodd" d="M90.9482 180.174L91.4597 181.311L92.615 181.643L91.741 182.513L91.7902 183.772L90.7385 183.173L89.6136 183.62L89.8376 182.38L89.0932 181.396L90.2834 181.229L90.9482 180.174Z" fill="#00160A"/>
<path fill-rule="evenodd" clip-rule="evenodd" d="M125.076 172.329L125.587 173.466L126.742 173.797L125.868 174.667L125.918 175.927L124.866 175.328L123.741 175.775L123.965 174.534L123.221 173.551L124.411 173.383L125.076 172.329Z" fill="#00160A"/>
<path fill-rule="evenodd" clip-rule="evenodd" d="M74.4728 209.987L74.9844 211.124L76.1397 211.455L75.2656 212.325L75.3149 213.585L74.2631 212.986L73.1383 213.432L73.3623 212.192L72.6178 211.209L73.8081 211.041L74.4728 209.987Z" fill="#00160A"/>
<path fill-rule="evenodd" clip-rule="evenodd" d="M74.108 220.187L74.7333 221.576L76.1453 221.981L75.077 223.045L75.1372 224.584L73.8517 223.852L72.4769 224.398L72.7507 222.882L71.8408 221.68L73.2955 221.476L74.108 220.187Z" fill="#00160A"/>
<path fill-rule="evenodd" clip-rule="evenodd" d="M85.8761 214.303L86.5013 215.692L87.9134 216.097L86.8451 217.161L86.9053 218.7L85.6198 217.968L84.245 218.514L84.5188 216.998L83.6089 215.796L85.0636 215.592L85.8761 214.303Z" fill="#00160A"/>
<path fill-rule="evenodd" clip-rule="evenodd" d="M101.567 209.595L102.192 210.985L103.604 211.39L102.536 212.454L102.596 213.993L101.31 213.261L99.9356 213.807L100.209 212.291L99.2996 211.089L100.754 210.884L101.567 209.595Z" fill="#00160A"/>
<path fill-rule="evenodd" clip-rule="evenodd" d="M78.3085 176.645L79.0164 178.133L80.6046 178.572L79.4082 179.705L79.4818 181.351L78.0345 180.563L76.4916 181.142L76.7936 179.522L75.7665 178.234L77.4004 178.02L78.3085 176.645Z" fill="#00160A"/>
<path fill-rule="evenodd" clip-rule="evenodd" d="M80.2697 165.661L80.9775 167.149L82.5658 167.588L81.3694 168.721L81.443 170.367L79.9957 169.58L78.4528 170.158L78.7547 168.538L77.7277 167.25L79.3616 167.036L80.2697 165.661Z" fill="#00160A"/>
<path fill-rule="evenodd" clip-rule="evenodd" d="M97.922 172.33L98.6299 173.818L100.218 174.257L99.0218 175.39L99.0953 177.036L97.648 176.248L96.1052 176.827L96.4071 175.207L95.38 173.918L97.0139 173.705L97.922 172.33Z" fill="#00160A"/>
<path fill-rule="evenodd" clip-rule="evenodd" d="M108.121 167.231L108.829 168.719L110.417 169.157L109.221 170.29L109.294 171.936L107.847 171.149L106.304 171.727L106.606 170.107L105.579 168.819L107.213 168.606L108.121 167.231Z" fill="#00160A"/>
<path fill-rule="evenodd" clip-rule="evenodd" d="M104.983 182.921L105.691 184.409L107.279 184.848L106.083 185.981L106.156 187.627L104.709 186.84L103.166 187.418L103.468 185.798L102.441 184.51L104.075 184.296L104.983 182.921Z" fill="#00160A"/>
<path fill-rule="evenodd" clip-rule="evenodd" d="M79.0929 188.021L79.8008 189.509L81.3891 189.948L80.1927 191.081L80.2662 192.727L78.8189 191.939L77.2761 192.518L77.578 190.898L76.5509 189.609L78.1848 189.396L79.0929 188.021Z" fill="#00160A"/>
<path fill-rule="evenodd" clip-rule="evenodd" d="M68.9945 170.76L69.6283 172.028L71.0422 172.405L69.9811 173.366L70.051 174.766L68.7615 174.092L67.3907 174.58L67.6549 173.203L66.7378 172.104L68.1905 171.927L68.9945 170.76Z" fill="#00160A"/>
<path fill-rule="evenodd" clip-rule="evenodd" d="M61.9337 178.998L62.5675 180.265L63.9814 180.643L62.9203 181.604L62.9902 183.004L61.7007 182.33L60.3299 182.818L60.5941 181.441L59.677 180.342L61.1297 180.165L61.9337 178.998Z" fill="#00160A"/>
<path fill-rule="evenodd" clip-rule="evenodd" d="M113.38 158.432C113.399 158.973 112.941 159.426 112.399 159.412C109.694 159.344 109.264 154.691 109.523 154.673C109.882 154.647 110.496 156.856 111.704 157.661C112.625 158.275 113.327 156.94 113.38 158.432Z" fill="#00160A"/>
<path fill-rule="evenodd" clip-rule="evenodd" d="M172.745 168.07C179.123 165.943 184.612 165.863 189.18 167.876C190.021 168.247 189.936 169.467 189.051 169.717L188.714 169.815C187.4 170.203 186.484 170.586 185.991 170.934L185.891 171.007L185.851 171.038C185.479 171.329 185.081 171.708 184.559 172.262L182.981 173.975C182.907 174.053 182.843 174.121 182.793 174.174C180.672 176.403 178.829 177.706 176.449 178.274C173.19 179.052 169.732 178.674 166.097 177.16C165.806 177.038 165.604 176.792 165.527 176.509L165.526 176.501L165.474 176.479C165.123 176.309 164.896 175.939 164.923 175.534L164.929 175.469C165.367 172.102 168.037 169.641 172.745 168.07ZM185.581 168.761C182.08 167.997 178.013 168.381 173.365 169.931C169.561 171.2 167.478 172.976 166.959 175.246L166.93 175.381L167.079 175.443C170.185 176.695 173.083 177.013 175.795 176.412L175.993 176.366C177.871 175.918 179.396 174.865 181.207 172.994L181.457 172.732C181.883 172.278 182.888 171.177 183.012 171.045C183.655 170.356 184.147 169.88 184.644 169.492L184.752 169.41C185.004 169.22 185.31 169.037 185.672 168.858L185.78 168.805L185.581 168.761Z" fill="#00160A"/>
<path fill-rule="evenodd" clip-rule="evenodd" d="M187.131 50.4434C187.575 50.1333 188.186 50.242 188.496 50.6861C188.806 51.1302 188.305 51.7691 187.861 52.0791C186.381 53.1118 182.818 56.4853 182.088 57.258L181.387 58.0049C180.01 59.4877 163.607 76.5441 163.214 76.1724C162.852 75.8315 178.857 58.2328 180.057 56.9467L180.103 56.8982C181.237 55.6876 182.285 54.5962 183.288 53.5855C184.281 52.5849 185.561 51.539 187.131 50.4434Z" fill="#00160A"/>
<path fill-rule="evenodd" clip-rule="evenodd" d="M185.143 115.593C183.347 117.22 183.713 122.654 186.052 132.217C186.162 132.666 186.726 132.813 187.04 132.474L187.431 132.052C191.411 127.714 193.695 124.319 194.286 121.814C194.648 120.274 194.28 119.256 193.054 119.256L192.976 119.257C192.242 119.287 191.232 119.733 189.894 120.592L189.713 120.71L189.71 120.695C189.253 118.506 188.731 116.969 188.124 116.06C187.304 114.833 186.191 114.643 185.143 115.593ZM187.16 116.705C187.735 117.566 188.273 119.27 188.744 121.788C188.822 122.202 189.301 122.398 189.647 122.156C191.309 120.993 192.48 120.416 193.054 120.416C193.297 120.416 193.373 120.627 193.157 121.548L193.129 121.658C192.581 123.804 190.577 126.822 187.121 130.668L186.925 130.885L186.806 130.377C184.933 122.298 184.691 117.567 185.922 116.452C186.426 115.996 186.72 116.046 187.16 116.705Z" fill="#FFB61D"/>
<path fill-rule="evenodd" clip-rule="evenodd" d="M174.085 128.65C173.71 129.2 173.419 130.065 173.193 131.264L173.164 131.425L173.084 131.376L172.817 131.214C171.906 130.674 171.22 130.395 170.712 130.374C169.62 130.329 169.344 131.22 169.718 132.461C170.333 134.464 172.427 136.991 175.762 139.737C176.098 140.014 176.609 139.834 176.698 139.408L176.788 138.971C178.004 133.001 178 129.673 176.597 128.442L176.546 128.398C175.692 127.662 174.777 127.703 174.136 128.577L174.085 128.65ZM175.836 129.318C176.723 130.12 176.765 132.928 175.819 137.89L175.756 138.214L175.633 138.108C172.966 135.785 171.31 133.693 170.828 132.123L170.805 132.043C170.746 131.835 170.718 131.672 170.714 131.564L170.713 131.537L170.751 131.543C171.189 131.612 172.053 132.057 173.272 132.88C173.628 133.121 174.112 132.905 174.171 132.479L174.22 132.147C174.443 130.688 174.738 129.718 175.072 129.263C175.279 128.981 175.409 128.962 175.747 129.242L175.836 129.318Z" fill="#FFB61D"/>
</svg>
