<svg width="200" height="60" viewBox="0 0 200 60" fill="none" xmlns="http://www.w3.org/2000/svg">
<rect width="200" height="60" rx="4" fill="#202124"/>
<path d="M66.6816 20.9741C66.4167 21.3537 66.0461 21.6383 65.5698 21.8281C65.0972 22.0143 64.5457 22.1074 63.9155 22.1074C63.2782 22.1074 62.7124 21.9588 62.2183 21.6616C61.7241 21.3608 61.341 20.9347 61.0688 20.3833C60.8003 19.8319 60.6624 19.1927 60.6553 18.4658V17.7837C60.6553 16.6056 60.9292 15.6925 61.4771 15.0444C62.0285 14.3963 62.8019 14.0723 63.7974 14.0723C64.6138 14.0723 65.2708 14.2817 65.7686 14.7007C66.2663 15.116 66.5706 15.7069 66.6816 16.4731H65.6504C65.457 15.4383 64.8411 14.9209 63.8027 14.9209C63.1117 14.9209 62.5871 15.1644 62.229 15.6514C61.8745 16.1348 61.6955 16.8366 61.6919 17.7568V18.396C61.6919 19.2733 61.8924 19.9715 62.2935 20.4907C62.6945 21.0063 63.237 21.2642 63.9209 21.2642C64.3076 21.2642 64.646 21.2212 64.936 21.1353C65.2261 21.0493 65.466 20.9043 65.6558 20.7002V18.9438H63.8457V18.106H66.6816V20.9741ZM72.8262 18.3853H69.437V21.1567H73.374V22H68.4058V14.1797H73.3203V15.0283H69.437V17.542H72.8262V18.3853ZM80.1685 15.0283H77.6548V22H76.6289V15.0283H74.1206V14.1797H80.1685V15.0283ZM84.9487 22H83.9175V14.1797H84.9487V22ZM92.0815 15.0283H89.5679V22H88.542V15.0283H86.0337V14.1797H92.0815V15.0283ZM101.771 18.3423C101.771 19.1086 101.642 19.7782 101.384 20.3511C101.126 20.9204 100.761 21.3555 100.289 21.6562C99.8159 21.957 99.2645 22.1074 98.6343 22.1074C98.0184 22.1074 97.4723 21.957 96.9961 21.6562C96.5199 21.3519 96.1493 20.9204 95.8843 20.3618C95.6229 19.7996 95.4886 19.1497 95.4814 18.4121V17.8481C95.4814 17.0962 95.6121 16.432 95.8735 15.8555C96.1349 15.279 96.5037 14.8385 96.98 14.5342C97.4598 14.2262 98.0076 14.0723 98.6235 14.0723C99.2502 14.0723 99.8016 14.2244 100.278 14.5288C100.758 14.8296 101.126 15.2682 101.384 15.8447C101.642 16.4176 101.771 17.0854 101.771 17.8481V18.3423ZM100.745 17.8374C100.745 16.91 100.559 16.1992 100.187 15.7051C99.8141 15.2074 99.2931 14.9585 98.6235 14.9585C97.9718 14.9585 97.458 15.2074 97.082 15.7051C96.7096 16.1992 96.5181 16.8867 96.5073 17.7676V18.3423C96.5073 19.241 96.6953 19.9482 97.0713 20.4639C97.4508 20.9759 97.9718 21.2319 98.6343 21.2319C99.3003 21.2319 99.8159 20.9902 100.181 20.5068C100.546 20.0199 100.734 19.3234 100.745 18.4175V17.8374ZM109.328 22H108.292L104.354 15.9736V22H103.318V14.1797H104.354L108.302 20.2329V14.1797H109.328V22Z" fill="white"/>
<path d="M73.5781 41.9697C73.0124 42.7074 72.2282 43.266 71.2256 43.6455C70.223 44.0251 69.0843 44.2148 67.8096 44.2148C66.499 44.2148 65.3389 43.9176 64.3291 43.3232C63.3193 42.7288 62.5387 41.8802 61.9873 40.7773C61.443 39.6673 61.1602 38.3747 61.1387 36.8994V35.6748C61.1387 33.3115 61.7044 31.4674 62.8359 30.1426C63.9674 28.8105 65.5465 28.1445 67.5732 28.1445C69.3135 28.1445 70.6956 28.5742 71.7197 29.4336C72.7438 30.293 73.3597 31.5319 73.5674 33.1504H70.9033C70.6025 31.2669 69.5104 30.3252 67.627 30.3252C66.4095 30.3252 65.4821 30.7656 64.8447 31.6465C64.2145 32.5202 63.8887 33.8057 63.8672 35.5029V36.7061C63.8672 38.3962 64.2217 39.7103 64.9307 40.6484C65.6468 41.5794 66.6387 42.0449 67.9062 42.0449C69.2956 42.0449 70.2839 41.7298 70.8711 41.0996V38.0381H67.6484V35.9756H73.5781V41.9697ZM75.8232 38.0811C75.8232 36.9424 76.0488 35.9183 76.5 35.0088C76.9512 34.0921 77.585 33.3903 78.4014 32.9033C79.2178 32.4092 80.1559 32.1621 81.2158 32.1621C82.7842 32.1621 84.0553 32.667 85.0293 33.6768C86.0104 34.6865 86.5404 36.0257 86.6191 37.6943L86.6299 38.3066C86.6299 39.4525 86.4079 40.4766 85.9639 41.3789C85.527 42.2812 84.8968 42.9795 84.0732 43.4736C83.2568 43.9678 82.3115 44.2148 81.2373 44.2148C79.5973 44.2148 78.2832 43.6706 77.2949 42.582C76.3138 41.4863 75.8232 40.029 75.8232 38.21V38.0811ZM78.4336 38.3066C78.4336 39.5026 78.6807 40.4408 79.1748 41.1211C79.6689 41.7943 80.3564 42.1309 81.2373 42.1309C82.1182 42.1309 82.8021 41.7871 83.2891 41.0996C83.7832 40.4121 84.0303 39.4059 84.0303 38.0811C84.0303 36.9066 83.776 35.9756 83.2676 35.2881C82.7663 34.6006 82.0824 34.2568 81.2158 34.2568C80.3636 34.2568 79.6868 34.597 79.1855 35.2773C78.6842 35.9505 78.4336 36.9603 78.4336 38.3066ZM88.3486 38.0811C88.3486 36.9424 88.5742 35.9183 89.0254 35.0088C89.4766 34.0921 90.1104 33.3903 90.9268 32.9033C91.7432 32.4092 92.6813 32.1621 93.7412 32.1621C95.3096 32.1621 96.5807 32.667 97.5547 33.6768C98.5358 34.6865 99.0658 36.0257 99.1445 37.6943L99.1553 38.3066C99.1553 39.4525 98.9333 40.4766 98.4893 41.3789C98.0524 42.2812 97.4222 42.9795 96.5986 43.4736C95.7822 43.9678 94.8369 44.2148 93.7627 44.2148C92.1227 44.2148 90.8086 43.6706 89.8203 42.582C88.8392 41.4863 88.3486 40.029 88.3486 38.21V38.0811ZM90.959 38.3066C90.959 39.5026 91.2061 40.4408 91.7002 41.1211C92.1943 41.7943 92.8818 42.1309 93.7627 42.1309C94.6436 42.1309 95.3275 41.7871 95.8145 41.0996C96.3086 40.4121 96.5557 39.4059 96.5557 38.0811C96.5557 36.9066 96.3014 35.9756 95.793 35.2881C95.2917 34.6006 94.6077 34.2568 93.7412 34.2568C92.889 34.2568 92.2122 34.597 91.7109 35.2773C91.2096 35.9505 90.959 36.9603 90.959 38.3066ZM100.906 38.1025C100.906 36.2979 101.329 34.8584 102.174 33.7842C103.026 32.7028 104.154 32.1621 105.558 32.1621C106.882 32.1621 107.924 32.624 108.684 33.5479L108.802 32.377H111.154V43.6455C111.154 45.1709 110.678 46.374 109.726 47.2549C108.78 48.1357 107.502 48.5762 105.891 48.5762C105.038 48.5762 104.204 48.3971 103.388 48.0391C102.578 47.6882 101.963 47.2262 101.54 46.6533L102.775 45.085C103.577 46.0374 104.566 46.5137 105.74 46.5137C106.607 46.5137 107.291 46.2773 107.792 45.8047C108.293 45.3392 108.544 44.6517 108.544 43.7422V42.958C107.792 43.7959 106.789 44.2148 105.536 44.2148C104.175 44.2148 103.062 43.6742 102.195 42.5928C101.336 41.5114 100.906 40.0146 100.906 38.1025ZM103.506 38.3281C103.506 39.4954 103.742 40.4157 104.215 41.0889C104.695 41.7549 105.357 42.0879 106.202 42.0879C107.255 42.0879 108.035 41.6367 108.544 40.7344V35.6211C108.05 34.7402 107.276 34.2998 106.224 34.2998C105.364 34.2998 104.695 34.64 104.215 35.3203C103.742 36.0007 103.506 37.0033 103.506 38.3281ZM116.622 44H114.012V27.5H116.622V44ZM124.593 44.2148C122.938 44.2148 121.596 43.6956 120.564 42.6572C119.54 41.6117 119.028 40.2223 119.028 38.4893V38.167C119.028 37.0068 119.25 35.972 119.694 35.0625C120.146 34.1458 120.776 33.4333 121.585 32.9248C122.394 32.4163 123.297 32.1621 124.292 32.1621C125.875 32.1621 127.096 32.667 127.955 33.6768C128.822 34.6865 129.255 36.1152 129.255 37.9629V39.0156H121.66C121.739 39.9753 122.058 40.7344 122.616 41.293C123.182 41.8516 123.891 42.1309 124.743 42.1309C125.939 42.1309 126.913 41.6475 127.665 40.6807L129.072 42.0234C128.607 42.7181 127.984 43.2588 127.203 43.6455C126.43 44.0251 125.56 44.2148 124.593 44.2148ZM124.281 34.2568C123.565 34.2568 122.985 34.5075 122.541 35.0088C122.104 35.5101 121.825 36.2083 121.703 37.1035H126.677V36.9102C126.619 36.0365 126.387 35.3776 125.979 34.9336C125.57 34.4824 125.005 34.2568 124.281 34.2568ZM139.739 38.1885V44H137.021V28.3594H143.005C144.752 28.3594 146.138 28.8141 147.162 29.7236C148.193 30.6331 148.709 31.8363 148.709 33.333C148.709 34.8656 148.204 36.0579 147.194 36.9102C146.192 37.7624 144.785 38.1885 142.973 38.1885H139.739ZM139.739 36.0078H143.005C143.972 36.0078 144.709 35.7822 145.218 35.3311C145.726 34.8727 145.98 34.2139 145.98 33.3545C145.98 32.5094 145.723 31.8363 145.207 31.335C144.691 30.8265 143.982 30.5651 143.08 30.5508H139.739V36.0078ZM153.618 44H151.008V27.5H153.618V44ZM163.415 44C163.3 43.778 163.2 43.4163 163.114 42.915C162.284 43.7816 161.267 44.2148 160.063 44.2148C158.896 44.2148 157.944 43.8818 157.206 43.2158C156.468 42.5498 156.1 41.7262 156.1 40.7451C156.1 39.5062 156.558 38.5573 157.475 37.8984C158.398 37.2324 159.716 36.8994 161.428 36.8994H163.028V36.1367C163.028 35.5352 162.86 35.0553 162.523 34.6973C162.187 34.332 161.675 34.1494 160.987 34.1494C160.393 34.1494 159.906 34.2998 159.526 34.6006C159.147 34.8942 158.957 35.2702 158.957 35.7285H156.347C156.347 35.0911 156.558 34.4967 156.98 33.9453C157.403 33.3867 157.976 32.9499 158.699 32.6348C159.43 32.3197 160.243 32.1621 161.138 32.1621C162.498 32.1621 163.583 32.5059 164.393 33.1934C165.202 33.8737 165.617 34.8333 165.639 36.0723V41.3145C165.639 42.36 165.785 43.1943 166.079 43.8174V44H163.415ZM160.547 42.1201C161.062 42.1201 161.546 41.9948 161.997 41.7441C162.455 41.4935 162.799 41.1569 163.028 40.7344V38.543H161.621C160.654 38.543 159.927 38.7113 159.44 39.0479C158.953 39.3844 158.71 39.8607 158.71 40.4766C158.71 40.9779 158.875 41.3789 159.204 41.6797C159.541 41.9733 159.988 42.1201 160.547 42.1201ZM172.267 40.2617L174.63 32.377H177.412L172.793 45.7617C172.084 47.7168 170.881 48.6943 169.184 48.6943C168.804 48.6943 168.385 48.6299 167.927 48.501V46.4814L168.421 46.5137C169.08 46.5137 169.574 46.3919 169.903 46.1484C170.24 45.9121 170.505 45.5111 170.698 44.9453L171.074 43.9463L166.992 32.377H169.807L172.267 40.2617Z" fill="white"/>
<path d="M43.1019 24.2425C41.8647 24.2425 40.8637 25.2435 40.8637 26.479V34.4065C40.8637 35.0002 41.0995 35.5695 41.5192 35.9892C41.939 36.409 42.5083 36.6448 43.1019 36.6448C43.6955 36.6448 44.2649 36.409 44.6846 35.9892C45.1044 35.5695 45.3402 35.0002 45.3402 34.4065V26.479C45.3402 25.2435 44.3392 24.2425 43.1019 24.2425V24.2425ZM20.8979 24.2425C19.6607 24.2425 18.6597 25.2435 18.6597 26.479V34.4065C18.6597 35.0002 18.8955 35.5695 19.3152 35.9892C19.735 36.409 20.3043 36.6448 20.8979 36.6448C21.4915 36.6448 22.0608 36.409 22.4806 35.9892C22.9004 35.5695 23.1362 35.0002 23.1362 34.4065V26.479C23.1364 26.1851 23.0787 25.8941 22.9662 25.6225C22.8538 25.3509 22.6889 25.1042 22.481 24.8965C22.2731 24.6887 22.0263 24.524 21.7546 24.4118C21.4829 24.2996 21.1918 24.2421 20.8979 24.2425V24.2425ZM36.4537 17.5768L37.7977 15.1478C37.837 15.0786 37.8621 15.0024 37.8717 14.9234C37.8812 14.8445 37.875 14.7644 37.8533 14.6879C37.8317 14.6113 37.795 14.5399 37.7455 14.4776C37.696 14.4154 37.6346 14.3636 37.5649 14.3253C37.4954 14.2861 37.4188 14.2611 37.3396 14.2518C37.2604 14.2425 37.1801 14.249 37.1034 14.271C37.0267 14.293 36.9551 14.33 36.8929 14.3799C36.8306 14.4297 36.7789 14.4915 36.7407 14.5615L35.3599 17.0465C34.3309 16.6353 33.1969 16.4025 31.9999 16.4025C30.8029 16.4025 29.6689 16.6335 28.6399 17.0448L27.2592 14.5633C27.221 14.4932 27.1693 14.4315 27.107 14.3816C27.0447 14.3317 26.9732 14.2947 26.8965 14.2727C26.8198 14.2508 26.7395 14.2442 26.6602 14.2536C26.581 14.2629 26.5044 14.2879 26.4349 14.327C26.3656 14.3657 26.3045 14.4177 26.2553 14.4799C26.206 14.5422 26.1695 14.6136 26.1479 14.69C26.1263 14.7664 26.12 14.8463 26.1293 14.9252C26.1386 15.004 26.1634 15.0803 26.2022 15.1495L27.5462 17.5785C25.1259 18.9575 23.5089 21.4233 23.5089 24.2425C23.5089 24.2618 23.5089 24.2793 23.5124 24.302C23.5089 24.3125 23.5089 24.3248 23.5089 24.3353V24.337H40.4892V24.3353V24.302V24.2425C40.4909 21.4233 38.8739 18.9593 36.4537 17.5768V17.5768ZM28.0799 21.0208C28.0003 21.0202 27.9216 21.004 27.8482 20.973C27.7749 20.942 27.7083 20.8968 27.6524 20.8401C27.5395 20.7256 27.4768 20.5709 27.4779 20.41C27.4791 20.2492 27.5441 20.0955 27.6586 19.9826C27.7732 19.8697 27.9279 19.8069 28.0887 19.808C28.2495 19.8092 28.4033 19.8742 28.5162 19.9887C28.6291 20.1033 28.6918 20.258 28.6907 20.4188C28.6895 20.5796 28.6245 20.7334 28.51 20.8463C28.3954 20.9592 28.2407 21.022 28.0799 21.0208ZM35.9199 21.0208C35.7673 21.0092 35.6247 20.9404 35.5206 20.8281C35.4166 20.7158 35.3587 20.5684 35.3587 20.4153C35.3587 20.2622 35.4166 20.1148 35.5206 20.0025C35.6247 19.8902 35.7673 19.8214 35.9199 19.8098C36.0805 19.8098 36.2345 19.8736 36.3481 19.9871C36.4616 20.1007 36.5254 20.2547 36.5254 20.4153C36.5254 20.5759 36.4616 20.7299 36.3481 20.8435C36.2345 20.957 36.0805 21.0208 35.9199 21.0208V21.0208ZM23.5089 37.2101C23.5089 38.3406 24.4277 39.2593 25.5634 39.2593H26.5889V43.461C26.5889 44.0547 26.8247 44.624 27.2445 45.0437C27.6642 45.4635 28.2335 45.6993 28.8272 45.6993C29.4208 45.6993 29.9901 45.4635 30.4099 45.0437C30.8296 44.624 31.0654 44.0547 31.0654 43.461V39.2593H32.9309V43.461C32.9309 44.6983 33.9319 45.6975 35.1657 45.6975C36.4064 45.6975 37.4074 44.6983 37.4074 43.461V39.2593H38.4329C39.5669 39.2593 40.4874 38.3423 40.4874 37.2101V24.799H23.5089V37.2101Z" fill="white"/>
</svg>
