<svg width="57" height="16" viewBox="0 0 57 16" fill="none" xmlns="http://www.w3.org/2000/svg">
<path d="M0 2H12L14 7H2L0 2Z" fill="#333652"/>
<path d="M0 8H12L14 13H2L0 8Z" fill="#333652"/>
<path d="M4 15L4 2.14286L9 2.5828e-07L9 12.8571L4 15Z" fill="#FAD02C"/>
<path d="M23.6445 8.60449H19.4678V13H18.1553V3.04688H24.3213V4.12695H19.4678V7.53125H23.6445V8.60449Z" fill="#FAD02C"/>
<path d="M25.8936 13V3.04688H28.7031C29.569 3.04688 30.3346 3.23828 31 3.62109C31.6654 4.00391 32.1781 4.5485 32.5381 5.25488C32.9027 5.96126 33.0872 6.77246 33.0918 7.68848V8.32422C33.0918 9.26302 32.9095 10.0856 32.5449 10.792C32.1849 11.4984 31.6676 12.0407 30.9932 12.4189C30.3232 12.7972 29.5417 12.9909 28.6484 13H25.8936ZM27.2061 4.12695V11.9268H28.5869C29.5986 11.9268 30.3848 11.6123 30.9453 10.9834C31.5104 10.3545 31.793 9.45898 31.793 8.29688V7.71582C31.793 6.58561 31.5264 5.70833 30.9932 5.08398C30.4645 4.45508 29.7126 4.13607 28.7373 4.12695H27.2061ZM38.458 6.73828C38.2666 6.70638 38.0592 6.69043 37.8359 6.69043C37.0065 6.69043 36.4437 7.04362 36.1475 7.75V13H34.8828V5.60352H36.1133L36.1338 6.45801C36.5485 5.7972 37.1364 5.4668 37.8975 5.4668C38.1436 5.4668 38.3304 5.4987 38.458 5.5625V6.73828ZM41.001 13H39.7363V5.60352H41.001V13ZM39.6338 3.6416C39.6338 3.43652 39.6953 3.26335 39.8184 3.12207C39.946 2.98079 40.1328 2.91016 40.3789 2.91016C40.625 2.91016 40.8118 2.98079 40.9395 3.12207C41.0671 3.26335 41.1309 3.43652 41.1309 3.6416C41.1309 3.84668 41.0671 4.01758 40.9395 4.1543C40.8118 4.29102 40.625 4.35938 40.3789 4.35938C40.1328 4.35938 39.946 4.29102 39.8184 4.1543C39.6953 4.01758 39.6338 3.84668 39.6338 3.6416ZM45.4717 11.2842L47.3037 5.60352H48.5957L45.9434 13H44.9795L42.2998 5.60352H43.5918L45.4717 11.2842ZM52.7861 13.1367C51.7835 13.1367 50.9678 12.8086 50.3389 12.1523C49.71 11.4915 49.3955 10.6097 49.3955 9.50684V9.27441C49.3955 8.54069 49.5345 7.88672 49.8125 7.3125C50.0951 6.73372 50.487 6.28255 50.9883 5.95898C51.4941 5.63086 52.041 5.4668 52.6289 5.4668C53.5905 5.4668 54.3379 5.78353 54.8711 6.41699C55.4043 7.05046 55.6709 7.95736 55.6709 9.1377V9.66406H50.6602C50.6784 10.3932 50.8903 10.9834 51.2959 11.4346C51.7061 11.8812 52.2256 12.1045 52.8545 12.1045C53.3011 12.1045 53.6794 12.0133 53.9893 11.8311C54.2992 11.6488 54.5703 11.4072 54.8027 11.1064L55.5752 11.708C54.9554 12.6605 54.0257 13.1367 52.7861 13.1367ZM52.6289 6.50586C52.1185 6.50586 51.6901 6.69271 51.3438 7.06641C50.9974 7.43555 50.7832 7.95508 50.7012 8.625H54.4062V8.5293C54.3698 7.88672 54.1966 7.38997 53.8867 7.03906C53.5768 6.68359 53.1576 6.50586 52.6289 6.50586Z" fill="#202124"/>
</svg>
